<svg xmlns="http://www.w3.org/2000/svg" width="121" height="124" fill="none" viewBox="0 0 121 124">
  <path fill="#F0F0F0" fill-rule="evenodd" d="M121 40.257V92.19c0 9.554-7.631 17.311-17.03 17.311H17.03c-9.4 0-17.03-7.757-17.03-17.31V40.256c0-9.554 7.63-17.311 17.03-17.311h86.94c9.399 0 17.03 7.756 17.03 17.31Z" clip-rule="evenodd"/>
  <mask id="a" width="121" height="88" x="0" y="22" maskUnits="userSpaceOnUse" style="mask-type:luminance">
    <path fill="#fff" d="M121 40.257V92.19c0 9.554-7.631 17.311-17.03 17.311H17.03c-9.4 0-17.03-7.757-17.03-17.31V40.256c0-9.554 7.63-17.311 17.03-17.311h86.94c9.399 0 17.03 7.756 17.03 17.31Z"/>
  </mask>
  <g mask="url(#a)">
    <path fill="#A70030" d="M121 22.946H0v22.777h121V22.946Z"/>
  </g>
  <path fill="#7CAA4F" fill-rule="evenodd" d="M31.37 18.39v9.111c0 2.515-2.008 4.556-4.481 4.556s-4.482-2.041-4.482-4.556v-9.11c0-2.515 2.009-4.556 4.482-4.556 2.473 0 4.481 2.04 4.481 4.555Zm67.223 0v9.111c0 2.515-2.008 4.556-4.482 4.556-2.473 0-4.481-2.041-4.481-4.556v-9.11c0-2.515 2.008-4.556 4.481-4.556 2.474 0 4.482 2.04 4.482 4.555Z" clip-rule="evenodd"/>
</svg>
