<svg xmlns="http://www.w3.org/2000/svg" width="41" height="46" fill="none" viewBox="0 0 41 46">
  <g clip-path="url(#a)">
    <path fill="#3F1A0A" fill-rule="evenodd" d="M16.25 40.452c-.081.623.082 1.277-.101 1.888a7.295 7.295 0 0 1-.473 1.224c-.184.356-.468.681-.546 1.086-.032.168.014.351.02.52.003.15-.027.337.04.477.233.486 1.002.33 1.432.327 1.04-.008 2.077.004 3.108-.136.389-.053.887-.062 1.2-.334.288-.252.133-.692.09-1.016-.067-.483.031-1.1-.18-1.55-.117-.25-.355-.393-.514-.611-.36-.496-.01-.825-.056-1.354-.002-.025-.063-.495-.11-.505-.292-.067-.628-.022-.927-.034-1.017-.041-2.023.075-3.043.025l.06-.007Zm6.205-.383c-.085.574.085 1.161-.004 1.733-.042.268-.23.476-.32.726a4.918 4.918 0 0 0-.25 2.213c.035.294.112.656.384.831.696.45 2.016.112 2.808.138.638.022 1.26.04 1.897-.008.265-.02.566.031.754-.195.61-.737-.28-1.79-.529-2.487-.103-.29-.194-.592-.343-.864-.137-.25-.354-.46-.466-.723-.102-.239-.1-.495-.123-.75a10.299 10.299 0 0 1-.042-.767c0-.051.027-.204-.022-.239-.216-.152-.796.092-1.028.12-.905.11-1.823.22-2.736.236l.02.036Z" clip-rule="evenodd"/>
    <path fill="#F1D88E" fill-rule="evenodd" d="M16.894 41.278c.36.016.733-.034 1.106-.073.419-.044.838-.073 1.24.012a.107.107 0 0 1 .082.089c.01.052.022.306.024.325.017.186 0 .382-.013.576-.01.178-.017.355.025.52a.125.125 0 0 1-.029.123.142.142 0 0 1-.097.043.487.487 0 0 1-.125-.014c-.048-.01-.1-.026-.135-.026-.188-.001-.375-.003-.563 0-.51.005-1.096.143-1.6.091a.107.107 0 0 1-.094-.098c-.006-.051-.002-.302-.002-.319.001-.354.006-.711.037-1.065a.102.102 0 0 1 .05-.19h.062a.09.09 0 0 1 .032.006Zm.06.205c-.03.347-.035.697-.036 1.045v.22c.477.029 1.015-.094 1.49-.099.188-.002.376 0 .565 0a.76.76 0 0 1 .151.025l.015.003a2.218 2.218 0 0 1-.01-.482c.01-.184.03-.37.013-.545a43.652 43.652 0 0 1-.017-.248c-.36-.063-.731-.034-1.104.005-.359.038-.719.085-1.067.076Zm6.319-.296-.066-.195a.102.102 0 0 1 .1-.134c.608.02 1.215.008 1.823.016.08.001.32-.024.487-.006.103.011.182.045.22.087a.28.28 0 0 1 .045.15c.014.18-.026.55-.024.614.008.26.062.514.078.772a.112.112 0 0 1-.063.115.162.162 0 0 1-.093.014c-.028-.002-.065-.016-.088-.014-.146.007-.29.02-.436.031-.642.054-1.29-.07-1.925.022a.096.096 0 0 1-.097-.04.118.118 0 0 1-.02-.077c.002-.081.046-.491.05-.514.058-.288-.004-.554.01-.841Zm.153 1.256c.6-.063 1.209.042 1.813-.008.147-.013.294-.025.442-.033l.043.003c-.021-.226-.064-.45-.07-.68-.003-.055.028-.344.026-.536a.991.991 0 0 0-.007-.102l-.025-.008a.702.702 0 0 0-.12-.013c-.153-.006-.335.013-.4.012-.56-.008-1.12.002-1.68-.013l.026.075a.101.101 0 0 1 .005.038c-.018.305.047.585-.013.889a10.2 10.2 0 0 0-.04.376Z" clip-rule="evenodd"/>
    <path fill="#fff" fill-rule="evenodd" d="M15.075 38.006c-.096.3-.111.547-.046.855.088.414.21.852.535 1.151.114.105.26.136.399.193.521.214.984.2 1.542.231.34.02.679.052 1.02.062.488.016.922-.008 1.403-.062.23-.026.489-.044.677-.192.143-.113.194-.286.27-.443.09-.189.133-.377.198-.573.106-.32.216-.574.135-.913-.034-.145-.034-.588-.244-.602-.25-.017-.537.126-.79.148-.786.068-1.58.127-2.37.108a38.875 38.875 0 0 1-2.409-.116c-.236-.021-.487 0-.72-.043m7.447-.209c-.052.088-.322.08-.363.204-.159.478-.187 1.207.32 1.834.186.23.095.386.402.451.288.062.93.059 1.215.02.457-.062.964-.044 1.418-.132.472-.09 1.09-.07 1.455-.414.468-.441.705-.974.741-1.604.011-.19-.155-.689-.39-.79" clip-rule="evenodd"/>
    <path fill="#600C13" fill-rule="evenodd" d="M12.714 33.132c.015.404.282 1.475.46 1.824.137.264.232.544.378.805.087.156.12.332.2.49.212.427.491.864.78 1.242.123.163.214.357.385.478.453.319 1.137.169 1.652.173 1.28.013 2.557.094 3.826-.105a.85.85 0 0 0 .547-.386c.09-.155.173-.43.393-.434.247-.005.375.261.543.396.166.132.382.164.586.188.6.073 1.26.12 1.862.058.342-.036 1.798-.183 2.172-.304.296-.096 1.092-.466 1.242-.517.313-.107.608-.372.858-.581.572-.478.579-1.052.643-1.719.055-.568.132-1.126.174-1.696l-16.7.088Z" clip-rule="evenodd"/>
  </g>
  <defs>
    <clipPath id="a">
      <path fill="#fff" d="M0 0h41v46H0z"/>
    </clipPath>
  </defs>
</svg>
