<svg xmlns="http://www.w3.org/2000/svg" width="42" height="116" fill="none" viewBox="0 0 42 116">
  <path fill="#3F1A0A" fill-rule="evenodd" d="M16.25 110.284c-.081.623.082 1.277-.101 1.888a7.304 7.304 0 0 1-.473 1.224c-.184.356-.468.681-.546 1.086-.032.168.014.351.02.52.003.151-.027.337.04.477.233.487 1.002.33 1.432.327 1.04-.008 2.077.004 3.108-.136.389-.053.887-.062 1.2-.334.288-.252.133-.692.09-1.016-.067-.483.031-1.099-.18-1.55-.117-.249-.355-.393-.514-.611-.36-.496-.01-.825-.056-1.354-.002-.025-.063-.494-.11-.505-.292-.066-.628-.022-.927-.034-1.017-.041-2.023.075-3.043.025l.06-.007Zm6.205-.383c-.085.574.085 1.162-.004 1.733-.042.268-.23.476-.32.726a4.92 4.92 0 0 0-.25 2.213c.035.294.112.656.384.831.696.45 2.016.112 2.808.138.638.022 1.26.04 1.897-.008.265-.02.566.031.754-.195.61-.737-.28-1.789-.529-2.487-.103-.29-.194-.592-.343-.864-.137-.249-.354-.461-.466-.723-.102-.239-.1-.495-.123-.749a10.313 10.313 0 0 1-.042-.768c0-.051.027-.204-.022-.239-.216-.152-.796.092-1.028.12-.905.11-1.823.22-2.736.236l.02.036Z" clip-rule="evenodd"/>
  <path fill="#F1D88E" fill-rule="evenodd" d="M16.894 111.11c.36.016.733-.034 1.106-.073.419-.044.838-.073 1.24.012a.108.108 0 0 1 .082.089c.01.052.022.306.024.325.017.186 0 .382-.013.577a1.69 1.69 0 0 0 .025.519.125.125 0 0 1-.029.124.142.142 0 0 1-.097.042.474.474 0 0 1-.125-.014c-.048-.011-.1-.026-.135-.026a35.207 35.207 0 0 0-.563 0c-.51.005-1.096.143-1.6.092a.109.109 0 0 1-.095-.099c-.005-.051 0-.302 0-.319 0-.354.005-.711.036-1.065a.1.1 0 0 1-.052-.093.102.102 0 0 1 .103-.097h.06c.012 0 .023.002.033.006Zm.06.205c-.03.347-.035.697-.036 1.045v.221c.477.028 1.015-.095 1.49-.1.188-.002.376-.001.565 0a.766.766 0 0 1 .166.028 2.215 2.215 0 0 1-.01-.482c.01-.183.03-.369.013-.545a36.82 36.82 0 0 1-.017-.248c-.36-.063-.731-.034-1.104.005-.359.038-.719.085-1.067.076Zm6.319-.296-.066-.195a.102.102 0 0 1 .1-.135c.608.022 1.216.009 1.824.018.078.001.32-.025.486-.007.103.012.182.045.22.088.018.022.04.075.045.149.014.181-.026.551-.024.614.008.26.062.515.078.772a.111.111 0 0 1-.063.115.153.153 0 0 1-.093.014c-.028-.002-.065-.016-.088-.014-.146.007-.29.02-.436.032-.642.053-1.29-.071-1.925.022a.1.1 0 0 1-.097-.04c-.003-.005-.023-.031-.02-.078.002-.081.046-.491.05-.514.058-.288-.004-.554.01-.841Zm.153 1.256c.6-.063 1.209.042 1.813-.008.147-.012.294-.025.442-.033l.043.003c-.021-.226-.064-.45-.07-.68-.003-.055.028-.344.026-.536 0-.036-.005-.08-.007-.102a.206.206 0 0 0-.025-.008.796.796 0 0 0-.12-.013c-.153-.006-.335.013-.4.012-.56-.007-1.12.002-1.68-.013l.026.075a.1.1 0 0 1 .005.039c-.018.304.047.585-.013.888a10.2 10.2 0 0 0-.04.376Z" clip-rule="evenodd"/>
  <path fill="#fff" fill-rule="evenodd" d="M15.075 107.838a1.54 1.54 0 0 0-.046.856c.088.413.21.851.535 1.15.114.105.26.136.399.193.521.214.984.201 1.542.231.34.019.679.052 1.02.062.488.016.922-.008 1.403-.062.23-.026.489-.044.677-.192.143-.112.194-.286.27-.443.09-.188.133-.376.198-.573.106-.32.216-.574.135-.913-.034-.145-.034-.588-.244-.602-.25-.017-.537.126-.79.148-.786.068-1.58.128-2.37.108a39.508 39.508 0 0 1-2.409-.116c-.236-.021-.487 0-.72-.042m7.447-.21c-.052.088-.322.079-.363.204-.159.478-.187 1.207.32 1.835.186.23.095.385.402.451.288.061.93.058 1.215.019.457-.062.964-.044 1.418-.131.472-.091 1.09-.072 1.455-.415.468-.441.705-.974.741-1.604.011-.189-.155-.689-.39-.79" clip-rule="evenodd"/>
  <path fill="#600C13" fill-rule="evenodd" d="M12.714 102.964c.015.404.282 1.475.46 1.824.137.264.232.545.378.805.087.156.12.332.2.491.212.427.491.863.78 1.241.123.163.214.358.385.478.453.319 1.137.169 1.652.174 1.28.012 2.557.093 3.826-.105a.851.851 0 0 0 .547-.387c.09-.155.173-.43.393-.434.247-.004.375.261.543.396.166.132.382.164.586.189.6.072 1.26.119 1.862.057.342-.036 1.798-.183 2.172-.304.296-.096 1.092-.466 1.242-.517.313-.106.608-.372.858-.581.572-.478.579-1.052.643-1.719.055-.568.132-1.125.174-1.695l-16.7.087Z" clip-rule="evenodd"/>
  <path fill="#BD111F" fill-rule="evenodd" d="M8.888 100.598c.852 1.237 3.108 2.44 4.461 3.057 1.048.478 2.145.968 3.271 1.241 2.34.568 5.365.4 7.694-.147.835-.196 5.068-1.663 6.25-2.412.872-.552 2.2-1.51 2.61-2.516.003-.007-2.6-3.587-2.408-5.645.092-.974-20.065-1.26-20.143.285-.134 2.642-1.754 6.402-1.735 6.137Z" clip-rule="evenodd"/>
  <path fill="#BD111F" fill-rule="evenodd" d="M8.839 100.508a3.73 3.73 0 0 0 .115-.234c.407-.906 1.46-3.717 1.566-5.817.006-.114.083-.227.244-.325.191-.117.512-.223.94-.315 2.754-.592 10.043-.66 14.772-.403 2.04.111 3.605.286 4.135.5.098.04.165.084.203.125a.187.187 0 0 1 .054.147c-.068.726.223 1.645.619 2.525.601 1.34 1.45 2.588 1.7 2.948l.073.106c.032.051.01.09.01.094-.417 1.023-1.763 2.002-2.65 2.564-1.19.753-5.443 2.227-6.283 2.425-2.343.55-5.386.718-7.741.147-1.132-.275-2.236-.767-3.29-1.247-1.353-.617-3.596-1.818-4.476-3.054-.023-.016-.049-.046-.044-.103a.104.104 0 0 1 .053-.083Zm.18.1c.878 1.2 3.057 2.355 4.373 2.955 1.042.474 2.133.963 3.252 1.234 2.326.564 5.332.396 7.646-.147.832-.196 5.043-1.654 6.219-2.399.843-.534 2.124-1.448 2.549-2.419l-.04-.058c-.252-.364-1.11-1.627-1.719-2.98-.409-.91-.703-1.863-.636-2.616a.333.333 0 0 0-.054-.04 1.42 1.42 0 0 0-.307-.109c-.674-.175-2.077-.316-3.837-.411-4.711-.257-11.973-.192-14.718.398-.397.085-.698.18-.876.29-.086.052-.143.1-.146.16-.121 2.388-1.447 5.682-1.705 6.142Z" clip-rule="evenodd"/>
  <path fill="#35190A" fill-rule="evenodd" d="M9.73 97.74c.242.4.826.72 1.305 1.105.627.503 1.328 1.026 2.084 1.322.566.221 1.213.29 1.809.398.903.164 1.8.345 2.717.418.781.062 1.568.021 2.347.085 2.29.187 3.886.124 6.097-.671.512-.183 3.046-1.113 3.497-1.473a16.44 16.44 0 0 0 1.603-1.473c.231-.239.222-.246.409-.522.262-.388-.296-1.324-.346-1.274-.269.262-2.21 1.3-3.04 1.87-2.095 1.436-4.816 1.8-7.297 1.937-2.42.133-5.407-.216-7.59-1.327-.936-.477-3.18-1.912-3.317-1.864-.149.052-.477 1.142-.278 1.469Z" clip-rule="evenodd"/>
  <path fill="#35190A" fill-rule="evenodd" d="M9.642 97.792c-.064-.104-.086-.277-.073-.474a3.08 3.08 0 0 1 .18-.804c.045-.12.093-.215.134-.268a.214.214 0 0 1 .09-.072.156.156 0 0 1 .083-.001c.053.011.16.06.308.138.674.358 2.26 1.352 3.008 1.734 2.168 1.102 5.134 1.447 7.538 1.315 2.462-.135 5.164-.493 7.243-1.918.827-.568 2.76-1.598 3.027-1.86a.104.104 0 0 1 .11-.025.142.142 0 0 1 .053.03.51.51 0 0 1 .073.086c.101.143.261.45.325.744.047.216.04.425-.058.569-.191.283-.183.29-.42.536a16.761 16.761 0 0 1-1.612 1.48c-.456.364-3.01 1.306-3.527 1.491-2.226.8-3.834.865-6.14.677-.78-.064-1.566-.024-2.347-.086-.921-.073-1.821-.254-2.728-.419-.601-.109-1.256-.18-1.827-.403-.766-.3-1.477-.828-2.112-1.338-.489-.392-1.08-.723-1.328-1.132Zm21.6-1.998c-.456.342-2.196 1.283-2.972 1.815-2.11 1.447-4.85 1.817-7.349 1.955-2.437.134-5.444-.22-7.642-1.338-.75-.382-2.337-1.378-3.012-1.736a3.046 3.046 0 0 0-.23-.108l-.012.017c-.027.046-.056.11-.084.186-.078.207-.15.5-.167.747-.01.147-.004.277.043.355.238.392.813.702 1.282 1.079.62.497 1.31 1.014 2.058 1.306.56.219 1.2.286 1.79.393.899.163 1.792.344 2.706.416.782.062 1.568.022 2.348.086 2.273.185 3.858.123 6.053-.665.508-.182 3.02-1.1 3.468-1.458a16.559 16.559 0 0 0 1.593-1.463c.225-.233.216-.24.398-.509.08-.118.06-.298.012-.477-.06-.225-.214-.49-.282-.6Z" clip-rule="evenodd"/>
  <path fill="#E5D162" fill-rule="evenodd" d="M18.067 99.113a.548.548 0 0 1 .619-.49c.926.112 1.913-.127 2.846-.143.152-.002.504-.069.767-.069.236 0 .433.054.553.127a.555.555 0 0 1 .252.331c.026.087.046.489.048.553.073.578.054 1.129 0 1.709-.004.044-.011.495-.02.587-.037.374-.337.47-.376.483-.605.204-1.405.035-2.03.034-.308-.001-1.007.125-1.513.146-.335.013-.612-.03-.767-.104a.818.818 0 0 1-.453-.575c-.038-.156-.027-.345-.044-.482a5.611 5.611 0 0 1 .118-2.107Zm.998.633a4.66 4.66 0 0 0-.017 1.342c.006.045.01.12.014.19.096 0 .217-.001.313-.009.496-.041 1.076-.134 1.354-.133.296.001.633.046.968.069.117.008.233.014.346.011l.007-.186c.047-.504.067-.983.002-1.487a.24.24 0 0 1-.001-.015c-.201.022-.395.05-.501.051-.811.014-1.663.178-2.485.167Z" clip-rule="evenodd"/>
  <path fill="#BD111F" fill-rule="evenodd" d="M9.103 93.158c.852 1.237 3.108 2.44 4.461 3.057 1.048.478 2.145.968 3.271 1.24 2.34.568 5.365.401 7.694-.147.835-.196 5.067-1.662 6.25-2.41.872-.553 2.2-1.511 2.61-2.517.003-.007-2.6-3.588-2.408-5.645.091-.974-20.065-1.26-20.143.285-.134 2.642-1.754 6.402-1.735 6.137Z" clip-rule="evenodd"/>
  <path fill="#BD111F" fill-rule="evenodd" d="M9.054 93.068c.023-.044.07-.132.115-.234.407-.906 1.46-3.717 1.566-5.818.006-.113.083-.226.244-.324.191-.117.512-.223.94-.315 2.754-.592 10.043-.66 14.772-.403 2.04.111 3.605.286 4.135.5.098.04.165.084.203.125a.186.186 0 0 1 .054.147c-.068.726.223 1.645.619 2.525.601 1.339 1.45 2.588 1.7 2.948l.073.106c.032.05.01.09.009.094-.416 1.023-1.763 2.002-2.65 2.564-1.188.752-5.442 2.227-6.282 2.425-2.343.55-5.386.718-7.741.147-1.132-.275-2.236-.767-3.29-1.247-1.353-.617-3.596-1.818-4.476-3.054-.023-.016-.049-.046-.045-.103a.102.102 0 0 1 .054-.083Zm.18.1c.878 1.2 3.057 2.355 4.373 2.955 1.042.474 2.133.963 3.252 1.234 2.326.564 5.332.396 7.646-.147.832-.196 5.043-1.654 6.219-2.399.843-.534 2.124-1.448 2.549-2.419l-.04-.058c-.253-.364-1.11-1.627-1.719-2.98-.409-.91-.703-1.863-.636-2.616a.333.333 0 0 0-.054-.04 1.426 1.426 0 0 0-.307-.109c-.674-.175-2.077-.316-3.837-.411-4.711-.257-11.973-.192-14.718.398-.398.086-.698.18-.876.29-.086.052-.143.1-.146.16-.121 2.388-1.447 5.682-1.705 6.142Z" clip-rule="evenodd"/>
  <path fill="#35190A" fill-rule="evenodd" d="M9.944 90.3c.243.4.827.72 1.306 1.105.627.503 1.328 1.026 2.084 1.322.566.22 1.213.29 1.809.398.903.164 1.8.345 2.717.418.781.061 1.567.021 2.347.085 2.29.187 3.886.124 6.097-.67.512-.184 3.046-1.114 3.497-1.474.577-.46 1.091-.943 1.603-1.473.231-.239.222-.246.409-.522.262-.388-.296-1.324-.347-1.274-.268.262-2.209 1.3-3.04 1.87-2.094 1.436-4.815 1.8-7.296 1.937-2.42.133-5.407-.217-7.59-1.327-.936-.477-3.18-1.912-3.317-1.864-.149.051-.477 1.142-.279 1.468Z" clip-rule="evenodd"/>
  <path fill="#35190A" fill-rule="evenodd" d="M9.857 90.352c-.064-.105-.086-.277-.073-.474a3.08 3.08 0 0 1 .18-.804c.044-.12.093-.215.133-.268a.214.214 0 0 1 .091-.072.156.156 0 0 1 .083-.001c.053.011.16.06.308.138.674.358 2.26 1.352 3.008 1.734 2.168 1.102 5.134 1.447 7.538 1.315 2.462-.135 5.164-.493 7.243-1.918.827-.568 2.76-1.598 3.027-1.86a.104.104 0 0 1 .11-.026.143.143 0 0 1 .053.03.518.518 0 0 1 .073.087c.101.143.261.45.325.744.047.216.04.425-.058.569-.192.283-.183.29-.42.536a16.761 16.761 0 0 1-1.612 1.48c-.456.364-3.01 1.306-3.527 1.49-2.226.8-3.834.866-6.14.677-.78-.063-1.566-.023-2.347-.085-.921-.073-1.821-.255-2.728-.419-.601-.11-1.256-.18-1.828-.403-.765-.3-1.476-.828-2.11-1.338-.49-.392-1.081-.723-1.33-1.132Zm21.6-1.998c-.456.342-2.196 1.282-2.973 1.815-2.109 1.447-4.85 1.817-7.348 1.955-2.437.133-5.444-.22-7.642-1.338-.75-.382-2.337-1.378-3.012-1.736a3.063 3.063 0 0 0-.23-.108l-.012.017a1.19 1.19 0 0 0-.084.185c-.078.208-.15.5-.168.748-.01.147-.003.277.044.355.238.392.813.702 1.282 1.079.62.497 1.31 1.014 2.058 1.306.56.219 1.2.286 1.789.393.9.163 1.793.344 2.707.416.781.062 1.568.022 2.348.085 2.273.186 3.858.124 6.053-.664.508-.183 3.02-1.1 3.468-1.458a16.57 16.57 0 0 0 1.593-1.463c.225-.233.216-.24.398-.509.08-.118.06-.299.012-.477-.06-.225-.214-.49-.282-.6Z" clip-rule="evenodd"/>
  <path fill="#E5D162" fill-rule="evenodd" d="M18.282 91.673a.557.557 0 0 1 .618-.49c.927.112 1.914-.127 2.847-.143.152-.002.504-.069.767-.069.236 0 .432.054.553.127a.555.555 0 0 1 .252.33c.026.088.045.49.048.554.073.578.054 1.13 0 1.71-.004.043-.011.493-.02.586-.037.374-.337.47-.376.483-.605.204-1.405.035-2.03.034-.308 0-1.007.125-1.513.145-.335.014-.613-.03-.767-.103a.818.818 0 0 1-.453-.575c-.038-.156-.027-.345-.044-.482a5.612 5.612 0 0 1 .118-2.107Zm.998.633c-.072.445-.073.88-.017 1.342.006.044.01.12.014.19.096 0 .217-.001.313-.009.495-.04 1.076-.134 1.354-.133.296 0 .633.046.968.069.117.008.233.014.345.01.004-.092.006-.17.008-.185.047-.505.066-.983.002-1.487l-.001-.015c-.202.022-.395.05-.501.051-.811.014-1.663.177-2.485.167Z" clip-rule="evenodd"/>
  <path fill="#BD111F" fill-rule="evenodd" d="M9.103 86.158c.852 1.237 3.108 2.44 4.461 3.057 1.048.478 2.145.968 3.271 1.24 2.34.568 5.365.401 7.694-.147.835-.196 5.067-1.662 6.25-2.41.872-.553 2.2-1.511 2.61-2.517.003-.007-2.6-3.588-2.408-5.645.091-.974-20.065-1.26-20.143.285-.134 2.642-1.754 6.402-1.735 6.137Z" clip-rule="evenodd"/>
  <path fill="#BD111F" fill-rule="evenodd" d="M9.054 86.068c.023-.044.07-.132.115-.234.407-.906 1.46-3.717 1.566-5.818.006-.113.083-.226.244-.324.191-.117.512-.223.94-.315 2.754-.592 10.043-.66 14.772-.403 2.04.111 3.605.286 4.135.5.098.04.165.084.203.125a.186.186 0 0 1 .054.147c-.068.726.223 1.645.619 2.525.601 1.339 1.45 2.588 1.7 2.948l.073.106c.032.05.01.09.009.094-.416 1.023-1.763 2.002-2.65 2.564-1.188.752-5.442 2.227-6.282 2.425-2.343.55-5.386.718-7.741.147-1.132-.275-2.236-.767-3.29-1.247-1.353-.617-3.596-1.818-4.476-3.054-.023-.016-.049-.046-.045-.103a.102.102 0 0 1 .054-.083Zm.18.1c.878 1.2 3.057 2.355 4.373 2.955 1.042.474 2.133.963 3.252 1.234 2.326.564 5.332.396 7.646-.147.832-.196 5.043-1.654 6.219-2.399.843-.534 2.124-1.448 2.549-2.419l-.04-.058c-.253-.364-1.11-1.627-1.719-2.98-.409-.91-.703-1.863-.636-2.616a.333.333 0 0 0-.054-.04 1.426 1.426 0 0 0-.307-.109c-.674-.175-2.077-.316-3.837-.411-4.711-.257-11.973-.192-14.718.398-.398.086-.698.18-.876.29-.086.052-.143.1-.146.16-.121 2.388-1.447 5.682-1.705 6.142Z" clip-rule="evenodd"/>
  <path fill="#35190A" fill-rule="evenodd" d="M9.944 83.3c.243.4.827.72 1.306 1.105.627.503 1.328 1.026 2.084 1.322.566.22 1.213.29 1.809.398.903.164 1.8.345 2.717.418.781.061 1.567.021 2.347.085 2.29.187 3.886.124 6.097-.67.512-.184 3.046-1.114 3.497-1.474.577-.46 1.091-.943 1.603-1.473.231-.239.222-.246.409-.522.262-.388-.296-1.324-.347-1.274-.268.262-2.209 1.3-3.04 1.87-2.094 1.436-4.815 1.8-7.296 1.937-2.42.133-5.407-.217-7.59-1.327-.936-.477-3.18-1.912-3.317-1.864-.149.051-.477 1.142-.279 1.468Z" clip-rule="evenodd"/>
  <path fill="#35190A" fill-rule="evenodd" d="M9.857 83.352c-.064-.105-.086-.277-.073-.474a3.08 3.08 0 0 1 .18-.804c.044-.12.093-.215.133-.268a.214.214 0 0 1 .091-.072.156.156 0 0 1 .083-.001c.053.011.16.06.308.138.674.358 2.26 1.352 3.008 1.734 2.168 1.102 5.134 1.447 7.538 1.315 2.462-.135 5.164-.493 7.243-1.918.827-.568 2.76-1.598 3.027-1.86a.104.104 0 0 1 .11-.026.143.143 0 0 1 .053.03.518.518 0 0 1 .073.087c.101.143.261.45.325.744.047.216.04.425-.058.569-.192.283-.183.29-.42.536a16.761 16.761 0 0 1-1.612 1.48c-.456.364-3.01 1.306-3.527 1.49-2.226.8-3.834.866-6.14.677-.78-.063-1.566-.023-2.347-.085-.921-.073-1.821-.255-2.728-.419-.601-.11-1.256-.18-1.828-.403-.765-.3-1.476-.828-2.11-1.338-.49-.392-1.081-.723-1.33-1.132Zm21.6-1.998c-.456.342-2.196 1.282-2.973 1.815-2.109 1.447-4.85 1.817-7.348 1.955-2.437.133-5.444-.22-7.642-1.338-.75-.382-2.337-1.378-3.012-1.736a3.063 3.063 0 0 0-.23-.108l-.012.017a1.19 1.19 0 0 0-.084.185c-.078.208-.15.5-.168.748-.01.147-.003.277.044.355.238.392.813.702 1.282 1.079.62.497 1.31 1.014 2.058 1.306.56.219 1.2.286 1.789.393.9.163 1.793.344 2.707.416.781.062 1.568.022 2.348.085 2.273.186 3.858.124 6.053-.664.508-.183 3.02-1.1 3.468-1.458a16.57 16.57 0 0 0 1.593-1.463c.225-.233.216-.24.398-.509.08-.118.06-.299.012-.477-.06-.225-.214-.49-.282-.6Z" clip-rule="evenodd"/>
  <path fill="#E5D162" fill-rule="evenodd" d="M18.282 84.673a.557.557 0 0 1 .618-.49c.927.112 1.914-.127 2.847-.143.152-.002.504-.069.767-.069.236 0 .432.054.553.127a.555.555 0 0 1 .252.33c.026.088.045.49.048.554.073.578.054 1.13 0 1.71-.004.043-.011.493-.02.586-.037.374-.337.47-.376.483-.605.204-1.405.035-2.03.034-.308 0-1.007.125-1.513.145-.335.014-.613-.03-.767-.103a.818.818 0 0 1-.453-.575c-.038-.156-.027-.345-.044-.482a5.612 5.612 0 0 1 .118-2.107Zm.998.633c-.072.445-.073.88-.017 1.342.006.044.01.12.014.19.096 0 .217-.001.313-.009.495-.04 1.076-.134 1.354-.133.296 0 .633.046.968.069.117.008.233.014.345.01.004-.092.006-.17.008-.185.047-.505.066-.983.002-1.487l-.001-.015c-.202.022-.395.05-.501.051-.811.014-1.663.177-2.485.167Z" clip-rule="evenodd"/>
  <path fill="#BD111F" fill-rule="evenodd" d="M9.103 78.158c.852 1.237 3.108 2.44 4.461 3.057 1.048.478 2.145.968 3.271 1.24 2.34.568 5.365.401 7.694-.147.835-.196 5.067-1.662 6.25-2.41.872-.553 2.2-1.511 2.61-2.517.003-.007-2.6-3.588-2.408-5.645.091-.974-20.065-1.26-20.143.285-.134 2.642-1.754 6.402-1.735 6.137Z" clip-rule="evenodd"/>
  <path fill="#BD111F" fill-rule="evenodd" d="M9.054 78.068c.023-.044.07-.132.115-.234.407-.906 1.46-3.717 1.566-5.818.006-.113.083-.226.244-.324.191-.117.512-.223.94-.315 2.754-.592 10.043-.66 14.772-.403 2.04.111 3.605.286 4.135.5.098.04.165.084.203.125a.186.186 0 0 1 .054.147c-.068.726.223 1.645.619 2.525.601 1.339 1.45 2.588 1.7 2.948l.073.106c.032.05.01.09.009.094-.416 1.023-1.763 2.002-2.65 2.564-1.188.752-5.442 2.227-6.282 2.425-2.343.55-5.386.718-7.741.147-1.132-.275-2.236-.767-3.29-1.247-1.353-.617-3.596-1.818-4.476-3.054-.023-.016-.049-.046-.045-.103a.102.102 0 0 1 .054-.083Zm.18.1c.878 1.2 3.057 2.355 4.373 2.955 1.042.474 2.133.963 3.252 1.234 2.326.564 5.332.396 7.646-.147.832-.196 5.043-1.654 6.219-2.399.843-.534 2.124-1.448 2.549-2.419l-.04-.058c-.253-.364-1.11-1.627-1.719-2.98-.409-.91-.703-1.863-.636-2.616a.333.333 0 0 0-.054-.04 1.426 1.426 0 0 0-.307-.109c-.674-.175-2.077-.316-3.837-.411-4.711-.257-11.973-.192-14.718.398-.398.086-.698.18-.876.29-.086.052-.143.1-.146.16-.121 2.388-1.447 5.682-1.705 6.142Z" clip-rule="evenodd"/>
  <path fill="#35190A" fill-rule="evenodd" d="M9.944 75.3c.243.4.827.72 1.306 1.105.627.503 1.328 1.026 2.084 1.322.566.22 1.213.29 1.809.398.903.164 1.8.345 2.717.418.781.061 1.567.021 2.347.085 2.29.187 3.886.124 6.097-.67.512-.184 3.046-1.114 3.497-1.474.577-.46 1.091-.943 1.603-1.473.231-.239.222-.246.409-.522.262-.388-.296-1.324-.347-1.274-.268.262-2.209 1.3-3.04 1.87-2.094 1.436-4.815 1.8-7.296 1.937-2.42.133-5.407-.217-7.59-1.327-.936-.477-3.18-1.912-3.317-1.864-.149.051-.477 1.142-.279 1.468Z" clip-rule="evenodd"/>
  <path fill="#35190A" fill-rule="evenodd" d="M9.857 75.352c-.064-.105-.086-.277-.073-.474a3.08 3.08 0 0 1 .18-.804c.044-.12.093-.215.133-.268a.214.214 0 0 1 .091-.072.156.156 0 0 1 .083-.001c.053.011.16.06.308.138.674.358 2.26 1.352 3.008 1.734 2.168 1.102 5.134 1.447 7.538 1.315 2.462-.135 5.164-.493 7.243-1.918.827-.568 2.76-1.598 3.027-1.86a.104.104 0 0 1 .11-.026.143.143 0 0 1 .053.03.518.518 0 0 1 .073.087c.101.143.261.45.325.744.047.216.04.425-.058.569-.192.283-.183.29-.42.536a16.761 16.761 0 0 1-1.612 1.48c-.456.364-3.01 1.306-3.527 1.49-2.226.8-3.834.866-6.14.677-.78-.063-1.566-.023-2.347-.085-.921-.073-1.821-.255-2.728-.419-.601-.11-1.256-.18-1.828-.403-.765-.3-1.476-.828-2.11-1.338-.49-.392-1.081-.723-1.33-1.132Zm21.6-1.998c-.456.342-2.196 1.282-2.973 1.815-2.109 1.447-4.85 1.817-7.348 1.955-2.437.133-5.444-.22-7.642-1.338-.75-.382-2.337-1.378-3.012-1.736a3.063 3.063 0 0 0-.23-.108l-.012.017a1.19 1.19 0 0 0-.084.185c-.078.208-.15.5-.168.748-.01.147-.003.277.044.355.238.392.813.702 1.282 1.079.62.497 1.31 1.014 2.058 1.306.56.219 1.2.286 1.789.393.9.163 1.793.344 2.707.416.781.062 1.568.022 2.348.085 2.273.186 3.858.124 6.053-.664.508-.183 3.02-1.1 3.468-1.458a16.57 16.57 0 0 0 1.593-1.463c.225-.233.216-.24.398-.509.08-.118.06-.299.012-.477-.06-.225-.214-.49-.282-.6Z" clip-rule="evenodd"/>
  <path fill="#E5D162" fill-rule="evenodd" d="M18.282 76.673a.557.557 0 0 1 .618-.49c.927.112 1.914-.127 2.847-.143.152-.002.504-.069.767-.069.236 0 .432.054.553.127a.555.555 0 0 1 .252.33c.026.088.045.49.048.554.073.578.054 1.13 0 1.71-.004.043-.011.493-.02.586-.037.374-.337.47-.376.483-.605.204-1.405.035-2.03.034-.308 0-1.007.125-1.513.145-.335.014-.613-.03-.767-.103a.818.818 0 0 1-.453-.575c-.038-.156-.027-.345-.044-.482a5.612 5.612 0 0 1 .118-2.107Zm.998.633c-.072.445-.073.88-.017 1.342.006.044.01.12.014.19.096 0 .217-.001.313-.009.495-.04 1.076-.134 1.354-.133.296 0 .633.046.968.069.117.008.233.014.345.01.004-.092.006-.17.008-.185.047-.505.066-.983.002-1.487l-.001-.015c-.202.022-.395.05-.501.051-.811.014-1.663.177-2.485.167Z" clip-rule="evenodd"/>
  <path fill="#BD111F" fill-rule="evenodd" d="M9.103 70.158c.852 1.237 3.108 2.44 4.461 3.057 1.048.478 2.145.968 3.271 1.24 2.34.568 5.365.401 7.694-.147.835-.196 5.067-1.662 6.25-2.41.872-.553 2.2-1.511 2.61-2.517.003-.007-2.6-3.588-2.408-5.645.091-.974-20.065-1.26-20.143.285-.134 2.642-1.754 6.402-1.735 6.137Z" clip-rule="evenodd"/>
  <path fill="#BD111F" fill-rule="evenodd" d="M9.054 70.068c.023-.044.07-.132.115-.234.407-.906 1.46-3.717 1.566-5.818.006-.113.083-.226.244-.324.191-.117.512-.223.94-.315 2.754-.592 10.043-.66 14.772-.403 2.04.111 3.605.286 4.135.5.098.04.165.084.203.125a.186.186 0 0 1 .054.147c-.068.726.223 1.645.619 2.525.601 1.339 1.45 2.588 1.7 2.948l.073.106c.032.05.01.09.009.094-.416 1.023-1.763 2.002-2.65 2.564-1.188.752-5.442 2.227-6.282 2.425-2.343.55-5.386.718-7.741.147-1.132-.275-2.236-.767-3.29-1.247-1.353-.617-3.596-1.818-4.476-3.054-.023-.016-.049-.046-.045-.103a.102.102 0 0 1 .054-.083Zm.18.1c.878 1.2 3.057 2.355 4.373 2.955 1.042.474 2.133.963 3.252 1.234 2.326.564 5.332.396 7.646-.147.832-.196 5.043-1.654 6.219-2.399.843-.534 2.124-1.448 2.549-2.419l-.04-.058c-.253-.364-1.11-1.627-1.719-2.98-.409-.91-.703-1.863-.636-2.616a.333.333 0 0 0-.054-.04 1.426 1.426 0 0 0-.307-.109c-.674-.175-2.077-.316-3.837-.411-4.711-.257-11.973-.192-14.718.398-.398.085-.698.18-.876.29-.086.052-.143.1-.146.16-.121 2.388-1.447 5.682-1.705 6.142Z" clip-rule="evenodd"/>
  <path fill="#35190A" fill-rule="evenodd" d="M9.944 67.3c.243.4.827.72 1.306 1.105.627.503 1.328 1.026 2.084 1.322.566.22 1.213.29 1.809.398.903.164 1.8.345 2.717.418.781.061 1.567.021 2.347.085 2.29.187 3.886.124 6.097-.67.512-.184 3.046-1.114 3.497-1.474.577-.46 1.091-.943 1.603-1.473.231-.239.222-.246.409-.522.262-.388-.296-1.324-.347-1.274-.268.262-2.209 1.3-3.04 1.87-2.094 1.436-4.815 1.8-7.296 1.937-2.42.133-5.407-.217-7.59-1.327-.936-.477-3.18-1.912-3.317-1.864-.149.051-.477 1.142-.279 1.468Z" clip-rule="evenodd"/>
  <path fill="#35190A" fill-rule="evenodd" d="M9.857 67.352c-.064-.105-.086-.277-.073-.474a3.08 3.08 0 0 1 .18-.804c.044-.12.093-.215.133-.268a.214.214 0 0 1 .091-.072.156.156 0 0 1 .083-.001c.053.011.16.06.308.138.674.358 2.26 1.352 3.008 1.734 2.168 1.102 5.134 1.447 7.538 1.315 2.462-.135 5.164-.493 7.243-1.918.827-.568 2.76-1.598 3.027-1.86a.104.104 0 0 1 .11-.026.143.143 0 0 1 .053.03.518.518 0 0 1 .073.087c.101.143.261.45.325.744.047.216.04.425-.058.569-.192.283-.183.29-.42.536a16.761 16.761 0 0 1-1.612 1.48c-.456.364-3.01 1.306-3.527 1.49-2.226.8-3.834.866-6.14.677-.78-.063-1.566-.023-2.347-.085-.921-.073-1.821-.255-2.728-.419-.601-.11-1.256-.18-1.828-.403-.765-.3-1.476-.828-2.11-1.338-.49-.392-1.081-.723-1.33-1.132Zm21.6-1.998c-.456.342-2.196 1.282-2.973 1.815-2.109 1.447-4.85 1.817-7.348 1.955-2.437.133-5.444-.22-7.642-1.338-.75-.382-2.337-1.378-3.012-1.736a3.063 3.063 0 0 0-.23-.108l-.012.017a1.19 1.19 0 0 0-.084.185c-.078.208-.15.5-.168.748-.01.147-.003.277.044.355.238.392.813.702 1.282 1.079.62.497 1.31 1.014 2.058 1.306.56.219 1.2.286 1.789.393.9.163 1.793.344 2.707.416.781.062 1.568.022 2.348.085 2.273.186 3.858.124 6.053-.664.508-.183 3.02-1.1 3.468-1.458a16.57 16.57 0 0 0 1.593-1.463c.225-.233.216-.24.398-.509.08-.118.06-.299.012-.477-.06-.225-.214-.49-.282-.6Z" clip-rule="evenodd"/>
  <path fill="#E5D162" fill-rule="evenodd" d="M18.282 68.673a.557.557 0 0 1 .618-.49c.927.112 1.914-.127 2.847-.143.152-.002.504-.069.767-.069.236 0 .432.054.553.127a.555.555 0 0 1 .252.33c.026.088.045.49.048.554.073.578.054 1.13 0 1.71-.004.043-.011.493-.02.586-.037.374-.337.47-.376.483-.605.204-1.405.035-2.03.034-.308 0-1.007.125-1.513.145-.335.014-.613-.03-.767-.103a.818.818 0 0 1-.453-.575c-.038-.156-.027-.345-.044-.482a5.612 5.612 0 0 1 .118-2.107Zm.998.633c-.072.445-.073.88-.017 1.342.006.044.01.12.014.19.096 0 .217-.001.313-.009.495-.04 1.076-.134 1.354-.133.296 0 .633.046.968.069.117.008.233.014.345.01.004-.092.006-.17.008-.185.047-.505.066-.983.002-1.487l-.001-.015c-.202.022-.395.05-.501.051-.811.014-1.663.177-2.485.167Z" clip-rule="evenodd"/>
  <path fill="#BD111F" fill-rule="evenodd" d="M9.103 62.158c.852 1.237 3.108 2.44 4.461 3.057 1.048.478 2.145.968 3.271 1.24 2.34.568 5.365.401 7.694-.147.835-.196 5.067-1.662 6.25-2.41.872-.554 2.2-1.511 2.61-2.517.003-.007-2.6-3.588-2.408-5.645.091-.974-20.065-1.26-20.143.285-.134 2.642-1.754 6.402-1.735 6.137Z" clip-rule="evenodd"/>
  <path fill="#BD111F" fill-rule="evenodd" d="M9.054 62.068c.023-.044.07-.132.115-.234.407-.906 1.46-3.717 1.566-5.818.006-.113.083-.226.244-.324.191-.117.512-.223.94-.315 2.754-.592 10.043-.66 14.772-.403 2.04.111 3.605.286 4.135.5.098.04.165.084.203.125a.186.186 0 0 1 .054.147c-.068.726.223 1.645.619 2.525.601 1.339 1.45 2.588 1.7 2.948l.073.106c.032.05.01.09.009.094-.416 1.023-1.763 2.002-2.65 2.564-1.188.753-5.442 2.227-6.282 2.425-2.343.55-5.386.718-7.741.147-1.132-.275-2.236-.767-3.29-1.247-1.353-.617-3.596-1.818-4.476-3.054-.023-.016-.049-.046-.045-.103a.102.102 0 0 1 .054-.083Zm.18.1c.878 1.2 3.057 2.355 4.373 2.955 1.042.474 2.133.963 3.252 1.234 2.326.564 5.332.396 7.646-.147.832-.196 5.043-1.654 6.219-2.399.843-.534 2.124-1.448 2.549-2.419l-.04-.058c-.253-.364-1.11-1.627-1.719-2.98-.409-.91-.703-1.863-.636-2.616a.333.333 0 0 0-.054-.04 1.426 1.426 0 0 0-.307-.109c-.674-.175-2.077-.316-3.837-.411-4.711-.257-11.973-.192-14.718.398-.398.085-.698.18-.876.29-.086.052-.143.1-.146.16-.121 2.388-1.447 5.682-1.705 6.141Z" clip-rule="evenodd"/>
  <path fill="#35190A" fill-rule="evenodd" d="M9.944 59.3c.243.4.827.72 1.306 1.105.627.503 1.328 1.026 2.084 1.322.566.22 1.213.29 1.809.398.903.164 1.8.345 2.717.418.781.061 1.567.021 2.347.085 2.29.187 3.886.124 6.097-.67.512-.184 3.046-1.114 3.497-1.474.577-.46 1.091-.943 1.603-1.473.231-.239.222-.246.409-.522.262-.388-.296-1.324-.347-1.274-.268.262-2.209 1.3-3.04 1.87-2.094 1.436-4.815 1.8-7.296 1.937-2.42.133-5.407-.216-7.59-1.327-.936-.477-3.18-1.912-3.317-1.864-.149.051-.477 1.142-.279 1.468Z" clip-rule="evenodd"/>
  <path fill="#35190A" fill-rule="evenodd" d="M9.857 59.352c-.064-.104-.086-.277-.073-.474a3.08 3.08 0 0 1 .18-.804c.044-.12.093-.215.133-.268a.214.214 0 0 1 .091-.072.156.156 0 0 1 .083-.001c.053.011.16.06.308.138.674.358 2.26 1.352 3.008 1.734 2.168 1.102 5.134 1.447 7.538 1.315 2.462-.135 5.164-.493 7.243-1.918.827-.568 2.76-1.598 3.027-1.86a.104.104 0 0 1 .11-.026.143.143 0 0 1 .053.03.518.518 0 0 1 .073.087c.101.143.261.45.325.744.047.216.04.425-.058.569-.192.283-.183.29-.42.536a16.761 16.761 0 0 1-1.612 1.48c-.456.364-3.01 1.306-3.527 1.49-2.226.8-3.834.866-6.14.678-.78-.064-1.566-.024-2.347-.086-.921-.073-1.821-.255-2.728-.419-.601-.11-1.256-.18-1.828-.403-.765-.3-1.476-.828-2.11-1.338-.49-.392-1.081-.723-1.33-1.132Zm21.6-1.998c-.456.342-2.196 1.282-2.973 1.815-2.109 1.447-4.85 1.817-7.348 1.955-2.437.133-5.444-.22-7.642-1.338-.75-.382-2.337-1.378-3.012-1.736a3.063 3.063 0 0 0-.23-.108l-.012.017a1.19 1.19 0 0 0-.084.185c-.078.208-.15.5-.168.748-.01.147-.003.277.044.355.238.392.813.702 1.282 1.079.62.497 1.31 1.014 2.058 1.306.56.219 1.2.286 1.789.393.9.163 1.793.344 2.707.416.781.062 1.568.022 2.348.085 2.273.186 3.858.124 6.053-.664.508-.183 3.02-1.1 3.468-1.458a16.57 16.57 0 0 0 1.593-1.463c.225-.233.216-.24.398-.509.08-.118.06-.299.012-.477-.06-.225-.214-.49-.282-.6Z" clip-rule="evenodd"/>
  <path fill="#E5D162" fill-rule="evenodd" d="M18.282 60.673a.557.557 0 0 1 .618-.49c.927.112 1.914-.127 2.847-.143.152-.002.504-.069.767-.069.236 0 .432.054.553.127a.555.555 0 0 1 .252.33c.026.088.045.49.048.554.073.578.054 1.13 0 1.71-.004.043-.011.493-.02.586-.037.374-.337.47-.376.483-.605.204-1.405.035-2.03.034-.308 0-1.007.125-1.513.145-.335.014-.613-.03-.767-.103a.818.818 0 0 1-.453-.575c-.038-.156-.027-.345-.044-.482a5.612 5.612 0 0 1 .118-2.107Zm.998.633c-.072.445-.073.88-.017 1.342.006.044.01.12.014.19.096 0 .217-.001.313-.009.495-.04 1.076-.134 1.354-.133.296 0 .633.046.968.069.117.008.233.014.345.01.004-.092.006-.17.008-.185.047-.505.066-.983.002-1.487l-.001-.015c-.202.022-.395.05-.501.051-.811.014-1.663.177-2.485.167Z" clip-rule="evenodd"/>
  <path fill="#BD111F" fill-rule="evenodd" d="M9.103 54.158c.852 1.237 3.108 2.44 4.461 3.057 1.048.478 2.145.968 3.271 1.24 2.34.568 5.365.401 7.694-.146.835-.197 5.067-1.663 6.25-2.412.872-.553 2.2-1.51 2.61-2.516.003-.007-2.6-3.588-2.408-5.645.091-.974-20.065-1.26-20.143.285-.134 2.642-1.754 6.402-1.735 6.137Z" clip-rule="evenodd"/>
  <path fill="#BD111F" fill-rule="evenodd" d="M9.054 54.068c.023-.044.07-.132.115-.234.407-.906 1.46-3.717 1.566-5.818.006-.113.083-.226.244-.324.191-.117.512-.223.94-.315 2.754-.592 10.043-.66 14.772-.403 2.04.111 3.605.286 4.135.5.098.04.165.084.203.125a.186.186 0 0 1 .054.147c-.068.726.223 1.645.619 2.525.601 1.339 1.45 2.588 1.7 2.948l.073.106c.032.05.01.09.009.094-.416 1.023-1.763 2.002-2.65 2.564-1.188.753-5.442 2.227-6.282 2.425-2.343.55-5.386.718-7.741.147-1.132-.275-2.236-.767-3.29-1.247-1.353-.617-3.596-1.818-4.476-3.054-.023-.016-.049-.046-.045-.103a.102.102 0 0 1 .054-.083Zm.18.1c.878 1.2 3.057 2.355 4.373 2.955 1.042.474 2.133.963 3.252 1.234 2.326.564 5.332.396 7.646-.147.832-.196 5.043-1.654 6.219-2.399.843-.534 2.124-1.448 2.549-2.419l-.04-.058c-.253-.364-1.11-1.627-1.719-2.98-.409-.91-.703-1.863-.636-2.616a.333.333 0 0 0-.054-.04 1.426 1.426 0 0 0-.307-.109c-.674-.175-2.077-.316-3.837-.411-4.711-.257-11.973-.192-14.718.398-.398.085-.698.18-.876.29-.086.052-.143.1-.146.16-.121 2.388-1.447 5.682-1.705 6.141Z" clip-rule="evenodd"/>
  <path fill="#35190A" fill-rule="evenodd" d="M9.944 51.3c.243.4.827.72 1.306 1.105.627.503 1.328 1.026 2.084 1.322.566.22 1.213.29 1.809.398.903.164 1.8.345 2.717.418.781.061 1.567.021 2.347.085 2.29.187 3.886.124 6.097-.67.512-.184 3.046-1.114 3.497-1.474.577-.46 1.091-.943 1.603-1.473.231-.239.222-.246.409-.522.262-.388-.296-1.324-.347-1.274-.268.262-2.209 1.3-3.04 1.87-2.094 1.436-4.815 1.8-7.296 1.937-2.42.133-5.407-.216-7.59-1.327-.936-.477-3.18-1.912-3.317-1.864-.149.051-.477 1.142-.279 1.468Z" clip-rule="evenodd"/>
  <path fill="#35190A" fill-rule="evenodd" d="M9.857 51.352c-.064-.104-.086-.277-.073-.474a3.08 3.08 0 0 1 .18-.804c.044-.12.093-.215.133-.268a.214.214 0 0 1 .091-.072.156.156 0 0 1 .083-.001c.053.011.16.06.308.138.674.358 2.26 1.352 3.008 1.734 2.168 1.102 5.134 1.447 7.538 1.315 2.462-.135 5.164-.493 7.243-1.918.827-.568 2.76-1.598 3.027-1.86a.104.104 0 0 1 .11-.026.143.143 0 0 1 .053.03.518.518 0 0 1 .073.087c.101.143.261.45.325.744.047.216.04.425-.058.569-.192.283-.183.29-.42.536a16.761 16.761 0 0 1-1.612 1.48c-.456.364-3.01 1.306-3.527 1.49-2.226.8-3.834.866-6.14.678-.78-.064-1.566-.024-2.347-.086-.921-.073-1.821-.255-2.728-.419-.601-.11-1.256-.18-1.828-.403-.765-.3-1.476-.828-2.11-1.338-.49-.392-1.081-.723-1.33-1.132Zm21.6-1.998c-.456.342-2.196 1.282-2.973 1.815-2.109 1.447-4.85 1.817-7.348 1.955-2.437.133-5.444-.22-7.642-1.338-.75-.382-2.337-1.378-3.012-1.736a3.063 3.063 0 0 0-.23-.108l-.012.017a1.19 1.19 0 0 0-.084.185c-.078.208-.15.5-.168.748-.01.147-.003.277.044.355.238.392.813.702 1.282 1.079.62.497 1.31 1.014 2.058 1.306.56.219 1.2.286 1.789.393.9.163 1.793.344 2.707.416.781.062 1.568.022 2.348.085 2.273.186 3.858.124 6.053-.664.508-.183 3.02-1.1 3.468-1.458a16.57 16.57 0 0 0 1.593-1.463c.225-.233.216-.24.398-.509.08-.118.06-.299.012-.477-.06-.225-.214-.49-.282-.6Z" clip-rule="evenodd"/>
  <path fill="#E5D162" fill-rule="evenodd" d="M18.282 52.673a.557.557 0 0 1 .618-.49c.927.112 1.914-.127 2.847-.143.152-.002.504-.069.767-.069.236 0 .432.054.553.127a.555.555 0 0 1 .252.33c.026.088.045.49.048.554.073.578.054 1.13 0 1.71-.004.043-.011.493-.02.586-.037.374-.337.47-.376.483-.605.204-1.405.035-2.03.034-.308 0-1.007.125-1.513.145-.335.014-.613-.03-.767-.103a.818.818 0 0 1-.453-.575c-.038-.156-.027-.345-.044-.482a5.612 5.612 0 0 1 .118-2.107Zm.998.633c-.072.445-.073.88-.017 1.342.006.044.01.12.014.19.096 0 .217-.001.313-.009.495-.04 1.076-.134 1.354-.133.296 0 .633.046.968.069.117.008.233.014.345.01.004-.092.006-.17.008-.185.047-.505.066-.983.002-1.487l-.001-.015c-.202.022-.395.05-.501.051-.811.014-1.663.177-2.485.167Z" clip-rule="evenodd"/>
  <path fill="#BD111F" fill-rule="evenodd" d="M9.103 46.158c.852 1.237 3.108 2.44 4.461 3.057 1.048.478 2.145.968 3.271 1.24 2.34.568 5.365.401 7.694-.146.835-.197 5.067-1.663 6.25-2.412.872-.553 2.2-1.51 2.61-2.516.003-.007-2.6-3.588-2.408-5.645.091-.974-20.065-1.26-20.143.285-.134 2.642-1.754 6.402-1.735 6.137Z" clip-rule="evenodd"/>
  <path fill="#BD111F" fill-rule="evenodd" d="M9.054 46.068c.023-.044.07-.132.115-.234.407-.906 1.46-3.717 1.566-5.818.006-.113.083-.226.244-.324.191-.117.512-.223.94-.315 2.754-.592 10.043-.66 14.772-.403 2.04.111 3.605.286 4.135.5.098.04.165.084.203.125a.186.186 0 0 1 .054.147c-.068.726.223 1.645.619 2.525.601 1.339 1.45 2.588 1.7 2.948l.073.106c.032.05.01.09.009.094-.416 1.023-1.763 2.002-2.65 2.564-1.188.753-5.442 2.227-6.282 2.425-2.343.55-5.386.718-7.741.147-1.132-.275-2.236-.767-3.29-1.247-1.353-.617-3.596-1.818-4.476-3.054-.023-.016-.049-.046-.045-.103a.102.102 0 0 1 .054-.083Zm.18.1c.878 1.2 3.057 2.355 4.373 2.955 1.042.474 2.133.963 3.252 1.234 2.326.564 5.332.396 7.646-.147.832-.196 5.043-1.654 6.219-2.399.843-.534 2.124-1.448 2.549-2.419l-.04-.058c-.253-.364-1.11-1.627-1.719-2.98-.409-.91-.703-1.863-.636-2.616a.333.333 0 0 0-.054-.04 1.426 1.426 0 0 0-.307-.109c-.674-.175-2.077-.316-3.837-.411-4.711-.257-11.973-.192-14.718.398-.398.085-.698.18-.876.29-.086.052-.143.1-.146.16-.121 2.388-1.447 5.682-1.705 6.141Z" clip-rule="evenodd"/>
  <path fill="#35190A" fill-rule="evenodd" d="M9.944 43.3c.243.4.827.72 1.306 1.105.627.503 1.328 1.026 2.084 1.322.566.22 1.213.29 1.809.398.903.164 1.8.345 2.717.418.781.061 1.567.021 2.347.085 2.29.187 3.886.124 6.097-.67.512-.184 3.046-1.114 3.497-1.474.577-.46 1.091-.943 1.603-1.473.231-.239.222-.246.409-.522.262-.388-.296-1.324-.347-1.274-.268.262-2.209 1.3-3.04 1.87-2.094 1.436-4.815 1.8-7.296 1.937-2.42.133-5.407-.216-7.59-1.327-.936-.477-3.18-1.912-3.317-1.864-.149.051-.477 1.142-.279 1.468Z" clip-rule="evenodd"/>
  <path fill="#35190A" fill-rule="evenodd" d="M9.857 43.352c-.064-.104-.086-.277-.073-.474a3.08 3.08 0 0 1 .18-.804c.044-.12.093-.215.133-.268a.214.214 0 0 1 .091-.072.156.156 0 0 1 .083-.001c.053.011.16.06.308.138.674.358 2.26 1.352 3.008 1.734 2.168 1.102 5.134 1.447 7.538 1.315 2.462-.135 5.164-.493 7.243-1.918.827-.568 2.76-1.598 3.027-1.86a.104.104 0 0 1 .11-.026.143.143 0 0 1 .053.03.518.518 0 0 1 .073.087c.101.143.261.45.325.744.047.216.04.425-.058.569-.192.283-.183.29-.42.536a16.761 16.761 0 0 1-1.612 1.48c-.456.364-3.01 1.306-3.527 1.49-2.226.8-3.834.866-6.14.678-.78-.064-1.566-.024-2.347-.086-.921-.073-1.821-.255-2.728-.419-.601-.11-1.256-.18-1.828-.403-.765-.3-1.476-.828-2.11-1.338-.49-.392-1.081-.723-1.33-1.132Zm21.6-1.998c-.456.342-2.196 1.282-2.973 1.815-2.109 1.447-4.85 1.817-7.348 1.955-2.437.133-5.444-.22-7.642-1.338-.75-.382-2.337-1.378-3.012-1.736a3.063 3.063 0 0 0-.23-.108l-.012.017a1.19 1.19 0 0 0-.084.185c-.078.208-.15.5-.168.748-.01.147-.003.277.044.355.238.392.813.702 1.282 1.079.62.497 1.31 1.014 2.058 1.306.56.219 1.2.286 1.789.393.9.163 1.793.344 2.707.416.781.062 1.568.022 2.348.085 2.273.186 3.858.124 6.053-.664.508-.183 3.02-1.1 3.468-1.458a16.57 16.57 0 0 0 1.593-1.463c.225-.233.216-.24.398-.509.08-.118.06-.299.012-.477-.06-.225-.214-.49-.282-.6Z" clip-rule="evenodd"/>
  <path fill="#E5D162" fill-rule="evenodd" d="M18.282 44.673a.557.557 0 0 1 .618-.49c.927.112 1.914-.127 2.847-.143.152-.002.504-.069.767-.069.236 0 .432.054.553.127a.555.555 0 0 1 .252.33c.026.088.045.49.048.554.073.578.054 1.13 0 1.71-.004.043-.011.493-.02.586-.037.374-.337.47-.376.483-.605.204-1.405.035-2.03.034-.308 0-1.007.125-1.513.145-.335.014-.613-.03-.767-.103a.818.818 0 0 1-.453-.575c-.038-.156-.027-.345-.044-.482a5.612 5.612 0 0 1 .118-2.107Zm.998.633c-.072.445-.073.88-.017 1.342.006.044.01.12.014.19.096 0 .217-.001.313-.009.495-.04 1.076-.134 1.354-.133.296 0 .633.046.968.069.117.008.233.014.345.01.004-.092.006-.17.008-.185.047-.505.066-.983.002-1.487l-.001-.015c-.202.022-.395.05-.501.051-.811.014-1.663.177-2.485.167Z" clip-rule="evenodd"/>
  <path fill="#BD111F" fill-rule="evenodd" d="M9.103 38.158c.852 1.237 3.108 2.44 4.461 3.057 1.048.478 2.145.968 3.271 1.24 2.34.568 5.365.401 7.694-.146.835-.197 5.067-1.663 6.25-2.412.872-.553 2.2-1.51 2.61-2.516.003-.007-2.6-3.588-2.408-5.645.091-.974-20.065-1.26-20.143.285-.134 2.642-1.754 6.402-1.735 6.137Z" clip-rule="evenodd"/>
  <path fill="#BD111F" fill-rule="evenodd" d="M9.054 38.068c.023-.044.07-.132.115-.234.407-.906 1.46-3.717 1.566-5.818.006-.113.083-.226.244-.324.191-.117.512-.223.94-.315 2.754-.592 10.043-.66 14.772-.403 2.04.111 3.605.286 4.135.5.098.04.165.084.203.125a.186.186 0 0 1 .054.147c-.068.726.223 1.645.619 2.525.601 1.339 1.45 2.588 1.7 2.948l.073.106c.032.05.01.09.009.094-.416 1.023-1.763 2.002-2.65 2.564-1.188.753-5.442 2.227-6.282 2.425-2.343.55-5.386.718-7.741.147-1.132-.275-2.236-.767-3.29-1.247-1.353-.617-3.596-1.818-4.476-3.054-.023-.016-.049-.046-.045-.103a.102.102 0 0 1 .054-.083Zm.18.1c.878 1.2 3.057 2.355 4.373 2.955 1.042.474 2.133.963 3.252 1.234 2.326.564 5.332.396 7.646-.147.832-.196 5.043-1.654 6.219-2.399.843-.534 2.124-1.448 2.549-2.419l-.04-.058c-.253-.364-1.11-1.627-1.719-2.98-.409-.91-.703-1.863-.636-2.616a.333.333 0 0 0-.054-.04 1.426 1.426 0 0 0-.307-.109c-.674-.175-2.077-.316-3.837-.411-4.711-.257-11.973-.192-14.718.398-.398.085-.698.18-.876.29-.086.052-.143.1-.146.16-.121 2.388-1.447 5.682-1.705 6.141Z" clip-rule="evenodd"/>
  <path fill="#35190A" fill-rule="evenodd" d="M9.944 35.3c.243.4.827.72 1.306 1.105.627.503 1.328 1.026 2.084 1.322.566.22 1.213.29 1.809.398.903.164 1.8.345 2.717.418.781.061 1.567.021 2.347.085 2.29.187 3.886.124 6.097-.67.512-.184 3.046-1.114 3.497-1.474.577-.46 1.091-.943 1.603-1.473.231-.239.222-.246.409-.522.262-.388-.296-1.324-.347-1.274-.268.262-2.209 1.3-3.04 1.87-2.094 1.436-4.815 1.8-7.296 1.937-2.42.133-5.407-.216-7.59-1.327-.936-.477-3.18-1.912-3.317-1.864-.149.051-.477 1.142-.279 1.468Z" clip-rule="evenodd"/>
  <path fill="#35190A" fill-rule="evenodd" d="M9.857 35.352c-.064-.104-.086-.277-.073-.474a3.08 3.08 0 0 1 .18-.804c.044-.12.093-.215.133-.268a.214.214 0 0 1 .091-.072.156.156 0 0 1 .083-.001c.053.011.16.06.308.138.674.358 2.26 1.352 3.008 1.734 2.168 1.102 5.134 1.447 7.538 1.315 2.462-.135 5.164-.493 7.243-1.918.827-.568 2.76-1.598 3.027-1.86a.104.104 0 0 1 .11-.026.143.143 0 0 1 .053.03.518.518 0 0 1 .073.087c.101.143.261.45.325.744.047.216.04.425-.058.569-.192.283-.183.29-.42.536a16.761 16.761 0 0 1-1.612 1.48c-.456.364-3.01 1.306-3.527 1.49-2.226.8-3.834.866-6.14.678-.78-.064-1.566-.024-2.347-.086-.921-.073-1.821-.255-2.728-.419-.601-.11-1.256-.18-1.828-.403-.765-.3-1.476-.828-2.11-1.338-.49-.392-1.081-.723-1.33-1.132Zm21.6-1.998c-.456.342-2.196 1.282-2.973 1.815-2.109 1.447-4.85 1.817-7.348 1.955-2.437.133-5.444-.22-7.642-1.338-.75-.382-2.337-1.378-3.012-1.736a3.063 3.063 0 0 0-.23-.108l-.012.017a1.19 1.19 0 0 0-.084.185c-.078.208-.15.5-.168.748-.01.147-.003.277.044.355.238.392.813.702 1.282 1.079.62.497 1.31 1.014 2.058 1.306.56.219 1.2.286 1.789.393.9.163 1.793.344 2.707.416.781.062 1.568.022 2.348.085 2.273.186 3.858.124 6.053-.664.508-.183 3.02-1.1 3.468-1.458a16.57 16.57 0 0 0 1.593-1.463c.225-.233.216-.24.398-.509.08-.118.06-.299.012-.477-.06-.225-.214-.49-.282-.6Z" clip-rule="evenodd"/>
  <path fill="#E5D162" fill-rule="evenodd" d="M18.282 36.673a.557.557 0 0 1 .618-.49c.927.112 1.914-.127 2.847-.143.152-.002.504-.069.767-.069.236 0 .432.054.553.127a.555.555 0 0 1 .252.33c.026.088.045.49.048.554.073.578.054 1.13 0 1.71-.004.043-.011.493-.02.586-.037.374-.337.47-.376.483-.605.204-1.405.035-2.03.034-.308 0-1.007.125-1.513.145-.335.014-.613-.03-.767-.103a.818.818 0 0 1-.453-.575c-.038-.156-.027-.345-.044-.482a5.612 5.612 0 0 1 .118-2.107Zm.998.633c-.072.445-.073.88-.017 1.342.006.044.01.12.014.19.096 0 .217-.001.313-.009.495-.04 1.076-.134 1.354-.133.296 0 .633.046.968.069.117.008.233.014.345.01.004-.092.006-.17.008-.185.047-.505.066-.983.002-1.487l-.001-.015c-.202.022-.395.05-.501.051-.811.014-1.663.177-2.485.167Z" clip-rule="evenodd"/>
  <path fill="#BD111F" fill-rule="evenodd" d="M9.103 30.326c.852 1.236 3.108 2.44 4.461 3.057 1.048.477 2.145.968 3.271 1.24 2.34.568 5.365.4 7.694-.147.835-.196 5.067-1.662 6.25-2.41.872-.554 2.2-1.511 2.61-2.517.003-.007-2.6-3.588-2.408-5.645.091-.974-20.065-1.26-20.143.285-.134 2.642-1.754 6.402-1.735 6.137Z" clip-rule="evenodd"/>
  <path fill="#BD111F" fill-rule="evenodd" d="M9.054 30.236c.023-.044.07-.132.115-.235.407-.905 1.46-3.716 1.566-5.817.006-.113.083-.226.244-.324.191-.117.512-.223.94-.315 2.754-.592 10.043-.66 14.772-.403 2.04.111 3.605.286 4.135.5a.56.56 0 0 1 .203.125.186.186 0 0 1 .054.147c-.068.726.223 1.645.619 2.525.601 1.339 1.45 2.588 1.7 2.948l.073.106c.032.05.01.09.009.094-.416 1.023-1.763 2.002-2.65 2.564-1.188.752-5.442 2.227-6.282 2.424-2.343.551-5.386.718-7.741.148-1.132-.275-2.236-.767-3.29-1.247-1.353-.617-3.596-1.818-4.476-3.054-.023-.016-.049-.046-.045-.103a.102.102 0 0 1 .054-.083Zm.18.1c.878 1.2 3.057 2.355 4.373 2.955 1.042.474 2.133.963 3.252 1.234 2.326.564 5.332.396 7.646-.147.832-.196 5.043-1.654 6.219-2.399.843-.534 2.124-1.448 2.549-2.419a11.86 11.86 0 0 1-.04-.058c-.253-.364-1.11-1.627-1.719-2.98-.409-.91-.703-1.863-.636-2.616a.34.34 0 0 0-.054-.04 1.42 1.42 0 0 0-.307-.109c-.674-.176-2.077-.316-3.837-.411-4.711-.257-11.973-.192-14.718.398-.398.085-.698.18-.876.29-.086.052-.143.1-.146.16-.121 2.387-1.447 5.681-1.705 6.141Z" clip-rule="evenodd"/>
  <path fill="#35190A" fill-rule="evenodd" d="M9.944 27.467c.243.4.827.721 1.306 1.106.627.503 1.328 1.026 2.084 1.322.566.22 1.213.29 1.809.398.903.163 1.8.345 2.717.418.781.061 1.567.021 2.347.085 2.29.187 3.886.123 6.097-.67.512-.184 3.046-1.114 3.497-1.475.577-.46 1.091-.942 1.603-1.472.231-.239.222-.246.409-.522.262-.388-.296-1.324-.347-1.274-.268.262-2.209 1.3-3.04 1.87-2.094 1.436-4.815 1.8-7.296 1.937-2.42.133-5.407-.217-7.59-1.327-.936-.477-3.18-1.912-3.317-1.864-.149.051-.477 1.142-.279 1.468Z" clip-rule="evenodd"/>
  <path fill="#35190A" fill-rule="evenodd" d="M9.857 27.52c-.064-.105-.086-.277-.073-.474.018-.267.096-.581.18-.805.044-.12.093-.215.133-.267a.215.215 0 0 1 .091-.072.155.155 0 0 1 .083-.002c.053.012.16.06.308.138.674.358 2.26 1.353 3.008 1.735 2.168 1.102 5.134 1.447 7.538 1.315 2.462-.135 5.164-.493 7.243-1.919.827-.567 2.76-1.598 3.027-1.859.026-.026.062-.04.11-.026a.143.143 0 0 1 .053.03.518.518 0 0 1 .073.087c.101.143.261.45.325.744.047.216.04.425-.058.569-.192.283-.183.29-.42.536a16.748 16.748 0 0 1-1.612 1.48c-.456.364-3.01 1.305-3.527 1.49-2.226.8-3.834.866-6.14.677-.78-.063-1.566-.023-2.347-.085-.921-.073-1.821-.255-2.728-.419-.601-.11-1.256-.18-1.828-.404-.765-.299-1.476-.828-2.11-1.337-.49-.392-1.081-.724-1.33-1.132Zm21.6-1.998c-.456.341-2.196 1.282-2.973 1.815-2.109 1.447-4.85 1.817-7.348 1.954-2.437.134-5.444-.22-7.642-1.337-.75-.382-2.337-1.378-3.012-1.736a3.114 3.114 0 0 0-.23-.108l-.012.017c-.027.045-.056.11-.084.185-.078.208-.15.5-.168.748-.01.146-.003.277.044.355.238.392.813.702 1.282 1.079.62.497 1.31 1.014 2.058 1.306.56.219 1.2.286 1.789.393.9.163 1.793.344 2.707.416.781.061 1.568.022 2.348.085 2.273.186 3.858.124 6.053-.664.508-.183 3.02-1.1 3.468-1.458a16.556 16.556 0 0 0 1.593-1.463c.225-.233.216-.24.398-.509.08-.119.06-.299.012-.478-.06-.225-.214-.49-.282-.6Z" clip-rule="evenodd"/>
  <path fill="#E5D162" fill-rule="evenodd" d="M18.282 28.84a.556.556 0 0 1 .618-.49c.927.113 1.914-.126 2.847-.142.152-.002.504-.069.767-.069.236 0 .432.054.553.127a.555.555 0 0 1 .252.33c.026.088.045.49.048.554.073.578.054 1.129 0 1.71-.004.043-.011.493-.02.586-.037.374-.337.47-.376.483-.605.204-1.405.035-2.03.034-.308-.001-1.007.125-1.513.145-.335.014-.613-.03-.767-.103a.818.818 0 0 1-.453-.576c-.038-.155-.027-.344-.044-.481a5.612 5.612 0 0 1 .118-2.107Zm.998.634a4.7 4.7 0 0 0-.017 1.341c.006.045.01.12.014.19.096.001.217 0 .313-.008.495-.041 1.076-.134 1.354-.134.296.001.633.047.968.07.117.008.233.014.345.01.004-.092.006-.17.008-.185.047-.505.066-.983.002-1.487l-.001-.015c-.202.022-.395.05-.501.051-.811.013-1.663.177-2.485.167Z" clip-rule="evenodd"/>
  <path fill="#60070C" fill-rule="evenodd" d="M4.342 22.636c-.95.555-1.382.26-2.408.157-.374-.037-1.026-.106-1.308.217-.696.8 1.275.963 1.636 1.058 0 0-.187.272-.207.297a3.344 3.344 0 0 1-.515.513c-.615.49-1.51.854-1.433 1.79.143 1.715 1.82 2.338 3.239 1.495.915-.544 1.619-1.975 2.703-2.653l-1.707-2.874Z" clip-rule="evenodd"/>
  <path fill="#60070C" fill-rule="evenodd" d="M2.09 24.136c-.32-.058-.954-.15-1.34-.345-.218-.11-.359-.259-.373-.436-.009-.119.037-.257.172-.412.127-.146.32-.225.535-.26.294-.048.629-.014.86.01.411.04.728.112 1.02.148.417.051.782.025 1.326-.293a.103.103 0 0 1 .14.036l1.707 2.875a.101.101 0 0 1-.033.138c-.534.333-.972.852-1.391 1.355-.434.52-.848 1.021-1.315 1.298-.74.44-1.55.495-2.19.218-.646-.278-1.128-.89-1.203-1.793-.042-.503.175-.854.489-1.143.293-.271.672-.486.982-.733a3.27 3.27 0 0 0 .5-.498l.115-.165Zm2.215-1.362c-.548.3-.932.322-1.366.27-.291-.037-.606-.108-1.016-.15-.216-.02-.53-.055-.806-.01-.164.027-.315.08-.413.192-.088.101-.128.186-.122.263.009.116.119.198.262.27.445.227 1.23.305 1.444.36.037.01.073.034.076.093 0 .004.005.027-.014.058l-.008.012c-.031.046-.189.274-.207.296a3.427 3.427 0 0 1-.53.53c-.307.243-.682.455-.971.722-.27.249-.46.547-.425.979.068.814.497 1.37 1.08 1.622.587.254 1.326.198 2.004-.205.449-.267.844-.753 1.262-1.254.41-.492.842-.999 1.356-1.344l-1.606-2.704Zm30.905 2.293c.459.427.765.995 1.21 1.44.544.544 1.374.985 2.104 1.232 1.393.472 2.669-.854 2.574-2.212-.058-.82-.752-1.181-1.39-1.562a3.581 3.581 0 0 0-.056-.033l-.082-.048a6.323 6.323 0 0 1-.64-.445c-.027-.021-.105-.04-.08-.064.371-.385 1.144-.279 1.379-.876.162-.412-.345-.75-.689-.786-.522-.056-1.122.249-1.658.289-.636.048-1.196-.165-1.814-.225l-.858 3.29Z" clip-rule="evenodd"/>
  <path fill="#60070C" fill-rule="evenodd" d="M39.009 23.37c.195.152.402.3.614.427l.081.048c.02.01.038.022.057.033.325.194.664.384.93.63.278.257.478.574.509 1.012.1 1.427-1.246 2.81-2.71 2.316-.743-.252-1.588-.703-2.143-1.258-.444-.443-.75-1.01-1.207-1.437a.102.102 0 0 1-.03-.1l.859-3.29a.102.102 0 0 1 .109-.075c.612.06 1.166.272 1.796.225.262-.02.54-.105.816-.178.295-.077.588-.14.861-.111.23.025.526.17.686.382a.537.537 0 0 1 .087.542c-.13.33-.402.47-.699.576-.215.077-.444.133-.616.259Zm-.14.15a.617.617 0 0 1-.073-.038.128.128 0 0 1-.043-.05c-.02-.04-.02-.084.022-.128.197-.203.497-.282.78-.383.242-.087.473-.191.578-.46.065-.163-.01-.31-.13-.422a.881.881 0 0 0-.474-.224c-.25-.027-.517.034-.787.105-.288.076-.578.163-.852.184-.613.045-1.155-.145-1.745-.216l-.82 3.147c.435.422.737.97 1.168 1.4.533.534 1.348.966 2.064 1.208 1.323.448 2.529-.818 2.438-2.109-.026-.38-.202-.654-.444-.878-.256-.235-.583-.417-.896-.603a27.084 27.084 0 0 0-.055-.033l-.083-.049a6.398 6.398 0 0 1-.648-.45Z" clip-rule="evenodd"/>
  <path fill="#BD111F" fill-rule="evenodd" d="M10.416 24.074c.216.02.317.453.31.603-.005.128 20.129.036 20.133-.092.006-.169.132-.489.22-.48.302.028.738.536.982.71.63.45 1.325.836 2.035 1.149.101.045 1.005.367 1.029.349.43-.339.646-1.33.878-1.795.225-.45.386-.934.557-1.407.178-.49.336-1.029.614-1.474.09-.144.358-.388.251-.552-.281-.432-.906-.423-1.34-.584-.878-.325-3.696-1.168-4.693-1.883-.485-.348-2.249-1.573-2.712-1.952-.181-.148-.53-.52-.764-.54-.75-.069-14.506-.063-14.661-.022-.627.164-1.409 1.16-1.919 1.572-1.587 1.284-3.4 2.405-5.178 3.406-.586.33-1.214.603-1.83.876a8.676 8.676 0 0 1-.593.237c-.102.037-.343 0-.309.103.045.136 1.055 1.605 1.184 1.798.284.42.52.866.77 1.306.22.388.495.747.723 1.131.075.126.155.25.21.386.028.07.032.273.079.213.756-.964 1.981-1.427 3.009-2.122.1-.068.94-.942 1.015-.936Z" clip-rule="evenodd"/>
  <path fill="#BD111F" fill-rule="evenodd" d="M31.095 24.21a.483.483 0 0 0-.04.059.87.87 0 0 0-.094.32c0 .023-.008.07-.068.094-.026.01-.163.024-.397.034-2.137.086-13.041.148-17.68.114-1.167-.009-1.94-.024-2.082-.046-.065-.01-.09-.045-.096-.056a.1.1 0 0 1-.014-.056.885.885 0 0 0-.094-.374.347.347 0 0 0-.068-.094.13.13 0 0 0-.032-.023 1.264 1.264 0 0 0-.071.058c-.26.224-.819.799-.9.854-1.019.689-2.236 1.145-2.986 2.1a.12.12 0 0 1-.09.05.109.109 0 0 1-.083-.029.201.201 0 0 1-.05-.1c-.012-.048-.018-.122-.033-.158-.052-.132-.13-.25-.202-.372-.229-.385-.504-.745-.724-1.133-.25-.438-.484-.882-.766-1.3-.131-.195-1.15-1.685-1.196-1.823a.144.144 0 0 1 0-.097.152.152 0 0 1 .09-.089.498.498 0 0 1 .136-.026c.051-.004.109-.004.145-.017.198-.072.394-.15.587-.235.612-.271 1.238-.543 1.82-.871 1.774-.999 3.581-2.117 5.165-3.397.305-.246.707-.703 1.115-1.063.287-.254.578-.46.841-.529.017-.004.177-.011.454-.014 2.35-.03 13.568-.029 14.243.033.108.01.24.08.37.177.17.126.34.297.45.387.462.377 2.223 1.6 2.707 1.948.992.711 3.796 1.546 4.67 1.87.214.08.476.117.72.188.269.078.515.198.67.436.061.095.048.21-.012.326-.064.122-.184.247-.239.334-.274.44-.43.973-.604 1.456-.173.477-.335.963-.562 1.417-.14.278-.272.745-.448 1.146-.126.286-.276.54-.459.683-.009.008-.05.032-.119.016a14.89 14.89 0 0 1-1.014-.351A11.687 11.687 0 0 1 32 24.898c-.147-.105-.364-.331-.58-.501-.115-.091-.227-.168-.326-.187ZM3.552 22.323c.173.304 1.026 1.54 1.144 1.716.285.422.521.87.773 1.313.22.387.495.745.723 1.13.077.13.16.259.216.4l.015.052c.768-.882 1.933-1.34 2.92-2.008.08-.054.627-.62.88-.84a.73.73 0 0 1 .138-.1.128.128 0 0 1 .064-.013c.118.01.218.102.286.232.064.121.101.274.113.385.235.018.957.03 1.994.037 4.635.034 15.534-.027 17.67-.114.114-.004.217-.012.278-.017.023-.128.08-.286.142-.379.056-.085.129-.118.18-.114.137.013.3.107.46.234.213.169.427.392.573.496a11.46 11.46 0 0 0 2.017 1.138c.086.038.76.28.957.333.145-.13.26-.343.364-.576.178-.405.312-.875.452-1.155.224-.448.383-.926.553-1.396.18-.496.341-1.043.623-1.494.053-.084.17-.204.23-.322.024-.043.046-.085.022-.12-.127-.196-.334-.287-.556-.352-.248-.073-.515-.11-.733-.192-.883-.328-3.715-1.177-4.718-1.896-.486-.349-2.253-1.577-2.717-1.956-.108-.088-.275-.257-.443-.381-.095-.071-.187-.13-.266-.137-.674-.062-11.875-.063-14.222-.033a17.4 17.4 0 0 0-.41.01c-.236.064-.493.254-.75.482-.411.363-.816.821-1.123 1.07-1.592 1.286-3.41 2.41-5.192 3.415-.589.331-1.22.606-1.839.88a9.134 9.134 0 0 1-.6.24.733.733 0 0 1-.168.027.52.52 0 0 0-.05.005Z" clip-rule="evenodd"/>
  <path fill="#FDFEFE" fill-rule="evenodd" d="M14.822 14.371c-1.011.54-1.821 1.515-1.27 2.67.132.275.351.483.596.66.016.012.29.16.288.171-.033.288-.272.595-.367.866-.262.743.098 1.715.679 2.236.226.203.511.322.807.384.037.008.44.044.443.054.223.689-.305 1.761.527 2.288.679.43 1.913-.08 2.043-.011.062.032.175.334.264.415.582.523 1.643.924 2.414.679.422-.134.796-.525 1.008-.903.008-.014.055-.13.064-.13.243 0 .505.13.747.166.85.125 1.761-.177 2.328-.836.243-.282.429-.611.406-.995-.012-.201-.316-.41-.197-.573.295-.407 1.162-.089 1.63-1.017.375-.744.54-1.598.264-2.396a1.423 1.423 0 0 0-.322-.536c-.015-.016-.212-.163-.21-.17.106-.569 1.404-.712.857-2.276-.163-.469-.374-.88-.835-1.114a3.076 3.076 0 0 0-.633-.243c-.013-.004-.207-.043-.207-.049.03-.615.315-1.068.189-1.738-.154-.81-.708-1.467-.749-2.306-.034-.706.695-1.396.093-1.953-.564-.521-1.442-.601-2.16-.77-2.137-.5-4.244-.396-6.387.134-.26.064-2.422.651-2.54.879-.17.324.103.868.056 1.221-.056.42-.306.784-.305 1.216.001.617.302 1.152.413 1.748.136.725.106 1.516.136 2.256l-.07-.027Z" clip-rule="evenodd"/>
  <path fill="#FDFEFE" fill-rule="evenodd" d="M14.785 14.277c-.023-.699-.003-1.437-.13-2.117-.112-.601-.413-1.143-.415-1.765 0-.229.064-.439.137-.647.068-.19.143-.38.17-.583.027-.204-.06-.474-.097-.725-.028-.197-.026-.383.05-.53a.252.252 0 0 1 .072-.079 1.34 1.34 0 0 1 .264-.14c.627-.27 2.062-.66 2.271-.711 2.16-.534 4.283-.64 6.436-.134.733.171 1.63.26 2.206.794.335.31.31.656.195 1.025-.1.32-.272.656-.255.997.02.407.165.769.323 1.128.166.377.345.752.423 1.165.067.35.026.643-.036.93-.052.242-.121.48-.145.748l.125.028a3.2 3.2 0 0 1 .654.251c.485.247.713.678.885 1.172.174.497.168.86.077 1.138-.092.282-.272.481-.457.65-.113.103-.227.193-.318.286a.593.593 0 0 0-.14.199c.057.044.157.124.168.134.158.16.273.364.345.575.284.825.117 1.707-.27 2.475-.299.593-.749.712-1.131.803-.114.028-.221.052-.314.09a.415.415 0 0 0-.193.137c-.014.02-.008.04 0 .063a.54.54 0 0 0 .053.095c.072.113.157.234.164.35.024.411-.171.766-.43 1.067-.59.686-1.538 1-2.423.87-.217-.032-.45-.143-.67-.162l-.036.076c-.224.398-.62.808-1.066.95-.803.255-1.908-.156-2.514-.701-.06-.053-.131-.193-.192-.306a1.408 1.408 0 0 0-.052-.088.772.772 0 0 0-.047.005c-.064.01-.15.03-.252.052-.277.06-.663.143-1.033.133-.26-.007-.512-.06-.717-.189-.45-.285-.54-.715-.54-1.17 0-.384.07-.788-.012-1.113-.108-.012-.358-.04-.384-.045a1.828 1.828 0 0 1-.855-.409c-.608-.546-.98-1.566-.707-2.344.049-.14.135-.289.213-.44.059-.115.114-.23.139-.343-.076-.044-.226-.13-.237-.139-.258-.187-.488-.408-.627-.699-.578-1.21.254-2.238 1.314-2.802l.01-.005Zm-.104-6.27c-.073.144-.043.336-.006.531.043.232.1.468.075.654-.029.217-.107.42-.18.623-.065.187-.125.375-.125.58.002.61.302 1.138.412 1.728.136.73.107 1.526.137 2.27a.102.102 0 0 1-.14.1l-.024-.01c-.946.518-1.703 1.43-1.185 2.514.124.26.333.455.563.622.015.01.238.133.282.165.053.039.05.088.048.1-.018.155-.09.316-.171.474-.074.142-.155.282-.202.414-.248.707.099 1.63.652 2.126.213.19.48.302.76.36.032.008.36.037.428.05.069.013.088.063.09.073.115.353.04.805.04 1.236 0 .385.063.755.445.997.175.111.39.152.612.158.352.01.72-.071.984-.13.141-.03.255-.055.324-.06a.219.219 0 0 1 .116.017c.028.015.07.06.109.128.055.096.119.25.176.301.558.502 1.574.893 2.314.658.399-.127.749-.499.95-.855.007-.015.052-.12.068-.14a.104.104 0 0 1 .085-.043c.248 0 .515.13.762.167.816.12 1.691-.168 2.235-.8.226-.263.403-.567.382-.924a.31.31 0 0 0-.056-.135c-.037-.061-.082-.122-.114-.18-.064-.116-.08-.226-.008-.324.13-.18.36-.242.625-.305.335-.08.734-.177.996-.698.363-.719.525-1.545.26-2.318a1.326 1.326 0 0 0-.299-.497c-.014-.015-.173-.133-.203-.162a.105.105 0 0 1-.035-.098.635.635 0 0 1 .153-.295c.1-.118.243-.229.384-.358.16-.145.32-.317.4-.561.08-.248.079-.568-.075-1.01-.155-.443-.35-.835-.786-1.056a2.982 2.982 0 0 0-.611-.236c-.013-.003-.177-.037-.21-.048a.103.103 0 0 1-.074-.104c.015-.313.095-.586.155-.864.056-.262.095-.53.035-.85-.075-.397-.25-.757-.41-1.12-.168-.382-.32-.768-.34-1.2-.018-.365.158-.726.264-1.067.09-.293.127-.57-.14-.816-.55-.51-1.411-.58-2.112-.745-2.121-.497-4.212-.393-6.34.133a25.84 25.84 0 0 0-1.977.597 3.4 3.4 0 0 0-.414.176.676.676 0 0 0-.084.057Z" clip-rule="evenodd"/>
  <path fill="#F0CECC" fill-rule="evenodd" d="M16.65 13.644c1.02.19 2.127-.014 3.157-.004.847.008 1.669.027 2.515-.026.492-.031.978-.034 1.437-.241.293-.133.543-.33.784-.54.231-.201.494-.392.647-.664.818-1.45-1.314-2.466-2.44-2.735-1.025-.244-2.143-.09-3.173.046-.555.073-1.136.12-1.669.298-.367.122-.693.329-1.048.477-.393.164-.86.207-1.225.43-1.211.738-.167 2.65.932 2.952l.082.007Z" clip-rule="evenodd"/>
  <path fill="#F0CECC" fill-rule="evenodd" d="m16.636 13.745-.078-.007a.088.088 0 0 1-.018-.003c-.691-.19-1.365-.985-1.517-1.76-.105-.534.033-1.057.559-1.377.369-.225.84-.27 1.239-.437.357-.15.684-.357 1.055-.48.54-.179 1.127-.228 1.688-.302 1.041-.137 2.172-.29 3.21-.043.692.165 1.753.608 2.312 1.255.392.453.546 1.004.194 1.628-.159.282-.43.482-.67.69-.248.216-.507.42-.809.556-.47.213-.967.219-1.473.25-.848.054-1.672.035-2.522.027-1.035-.01-2.146.192-3.17.003Zm.033-.201c1.014.189 2.114-.016 3.14-.006.844.008 1.663.028 2.506-.026.48-.03.954-.03 1.401-.232.284-.128.526-.32.76-.523.222-.194.478-.376.625-.637.302-.536.166-1.008-.17-1.397-.532-.616-1.546-1.033-2.205-1.19-1.013-.24-2.118-.087-3.135.048-.549.072-1.123.118-1.65.293-.366.121-.688.328-1.04.475-.39.162-.852.203-1.212.422-.444.27-.553.714-.465 1.165.137.7.737 1.424 1.361 1.6l.073.006c.004 0 .007 0 .01.002Z" clip-rule="evenodd"/>
  <path fill="#F6F4F4" fill-rule="evenodd" d="M19.81 14.676c-.087-.48-.514-.72-.956-.824-.817-.19-1.721-.031-2.52-.296a2.187 2.187 0 0 1-.929-.647c-.008-.01-.076-.11-.08-.109-.169.064-.22.317-.234.468-.101 1.076.384 2.377 1.468 2.803.896.352 1.9-.104 2.635-.606.213-.146.62-.4.698-.671l-.081-.118Z" clip-rule="evenodd"/>
  <path fill="#F6F4F4" fill-rule="evenodd" d="m19.907 14.636.07.1a.1.1 0 0 1 .014.086.845.845 0 0 1-.246.357c-.159.15-.362.28-.493.37-.761.52-1.803.981-2.73.617-1.127-.443-1.638-1.79-1.533-2.907a1.03 1.03 0 0 1 .094-.357.395.395 0 0 1 .207-.197.102.102 0 0 1 .117.031c.013.016.07.1.078.109a2.076 2.076 0 0 0 .882.614c.39.13.806.154 1.224.171.435.018.872.026 1.287.123.474.11.925.375 1.03.883Zm-4.606-1.697a.348.348 0 0 0-.055.1.902.902 0 0 0-.053.24c-.097 1.033.361 2.287 1.404 2.697.864.34 1.83-.11 2.54-.595.123-.085.316-.207.467-.35a.739.739 0 0 0 .174-.222l-.052-.075a.103.103 0 0 1-.016-.04c-.08-.437-.477-.649-.879-.743-.402-.093-.826-.1-1.248-.117-.438-.018-.873-.046-1.281-.182a2.285 2.285 0 0 1-.977-.68l-.024-.033Zm5.096 1.941c.164.283.447.468.72.638.251.156.502.316.796.38 1.342.291 2.973-.595 3.02-2.041.013-.357-.071-.731-.17-1.073a9.412 9.412 0 0 0-.106-.31c-.095.043-.13.306-.166.384a.788.788 0 0 1-.478.431c-1.136.383-2.423-.266-3.23.893a3.153 3.153 0 0 0-.35.611l-.036.087Z" clip-rule="evenodd"/>
  <path fill="#F6F4F4" fill-rule="evenodd" d="m20.302 14.841.036-.086c.092-.227.22-.43.361-.631.425-.611.975-.749 1.57-.781.556-.03 1.152.038 1.711-.15a.687.687 0 0 0 .417-.376c.025-.056.05-.201.096-.299a.271.271 0 0 1 .122-.137c.026-.011.072-.024.117.024a.116.116 0 0 1 .024.041c.019.048.1.291.106.31.101.352.187.737.174 1.104-.05 1.51-1.745 2.441-3.145 2.138-.306-.067-.567-.231-.829-.394-.286-.178-.581-.376-.754-.674a.101.101 0 0 1-.006-.089Zm4.334-2.114c-.02.07-.036.138-.052.173a.889.889 0 0 1-.538.486c-.577.194-1.192.13-1.766.16-.534.029-1.03.145-1.412.693-.132.19-.254.38-.34.592l-.016.04c.158.245.414.408.66.56.24.15.48.306.763.368 1.284.278 2.85-.561 2.896-1.946.012-.346-.07-.71-.166-1.04a5.858 5.858 0 0 0-.03-.086Z" clip-rule="evenodd"/>
  <path fill="#950D19" fill-rule="evenodd" d="M20.009 14.911c-.218.126-.274.524-.52.508-.373-.023-.601.113-.674.595-.02.142-.198.201-.335.249a.444.444 0 0 1-.138.022c-.023 0-.084-.015-.069.002.424.46 1 .763 1.647.608.688-.163 1.374-.929.984-1.63-.2-.357-.576-.107-.824-.295l-.071-.059Z" clip-rule="evenodd"/>
  <path fill="#950D19" fill-rule="evenodd" d="m20.075 14.833.069.057a.298.298 0 0 0 .154.054c.07.008.144.006.216.009.184.007.358.044.48.264.215.386.137.792-.094 1.123-.223.32-.59.567-.956.654-.685.164-1.298-.15-1.746-.638a.1.1 0 0 1-.029-.087.1.1 0 0 1 .053-.077.127.127 0 0 1 .06-.015c.015 0 .044.007.058.007a.347.347 0 0 0 .106-.018.887.887 0 0 0 .192-.08c.037-.021.07-.046.076-.087.041-.274.133-.447.26-.55.132-.106.305-.145.521-.131.041.002.072-.02.1-.048a.71.71 0 0 0 .078-.106c.08-.127.162-.27.284-.341a.103.103 0 0 1 .117.01Zm-1.58 1.532c.38.349.864.56 1.401.432.32-.077.641-.294.836-.573.187-.268.257-.596.082-.91-.096-.172-.25-.157-.396-.16-.143-.002-.283-.014-.4-.103l-.004-.003-.008-.007a.636.636 0 0 0-.074.095c-.046.069-.088.145-.134.207-.082.113-.18.187-.315.178-.157-.01-.284.008-.378.085-.098.079-.157.215-.188.423a.306.306 0 0 1-.127.2 1.017 1.017 0 0 1-.295.136Z" clip-rule="evenodd"/>
  <path fill="#D97978" fill-rule="evenodd" d="M20.334 12.1c-.586-.008-1.269.131-1.72.607-.606.642-.473 1.471.392 1.776.32.113.68.113 1.016.12.639.012 1.567-.174 1.924-.77.506-.846-.685-1.718-1.612-1.732Z" clip-rule="evenodd"/>
  <path fill="#D97978" fill-rule="evenodd" d="M20.336 11.999c.586.01 1.271.344 1.61.803.24.323.314.706.088 1.083-.153.256-.403.443-.694.573-.42.187-.924.254-1.32.246-.347-.007-.718-.009-1.048-.125-.473-.167-.742-.481-.814-.838-.071-.353.052-.755.382-1.103.47-.498 1.183-.648 1.796-.639Zm-.003.204c-.56-.009-1.214.12-1.644.574-.277.293-.39.627-.33.925.06.295.29.547.681.685.31.11.659.107.984.114.37.007.84-.054 1.232-.23.251-.111.47-.27.602-.49.179-.299.114-.602-.076-.858-.306-.413-.923-.712-1.45-.72Z" clip-rule="evenodd"/>
  <path fill="#000" fill-rule="evenodd" d="M17.27 11.564a.103.103 0 0 1-.144.002.102.102 0 0 1-.003-.144c.432-.44.978-.368 1.433-.012a.102.102 0 0 1 .017.143.103.103 0 0 1-.144.016c-.368-.287-.81-.361-1.159-.005Zm4.983-.15a.103.103 0 0 1-.143.024.101.101 0 0 1-.024-.142.785.785 0 0 1 .456-.33c.362-.087.76.156 1.025.475a.102.102 0 0 1-.014.144.103.103 0 0 1-.145-.014c-.214-.258-.525-.477-.819-.407a.589.589 0 0 0-.336.25Z" clip-rule="evenodd"/>
  <path fill="#F4F4F4" fill-rule="evenodd" d="M27.4 5.999c-.197.426-.134.93-.025 1.371.109.441.245.94.552 1.289.696.79 1.998.938 2.809.26.579-.485.445-1.327.225-1.963-.173-.501-.466-1.044-.903-1.37-.573-.427-1.619-.507-2.3-.3l-.358.713Z" clip-rule="evenodd"/>
  <path fill="#F4F4F4" fill-rule="evenodd" d="m27.308 5.953.358-.712a.104.104 0 0 1 .062-.052c.709-.215 1.795-.129 2.392.316.453.338.759.898.938 1.418.114.33.204.712.192 1.074-.012.38-.135.737-.448 1-.852.712-2.221.559-2.952-.271-.318-.361-.462-.876-.575-1.331-.114-.463-.175-.992.031-1.439l.002-.003Zm.184.09c-.186.404-.121.884-.018 1.303.106.426.234.909.53 1.246.66.75 1.896.893 2.666.249.266-.223.365-.528.376-.85.01-.339-.076-.695-.182-1.002-.166-.483-.447-1.008-.867-1.32-.54-.403-1.513-.48-2.168-.298l-.337.672Z" clip-rule="evenodd"/>
  <path fill="#9F0A1B" fill-rule="evenodd" d="M14.258 8.1c.812-.77 2.05-1.101 3.117-1.296 1.835-.333 3.73-.484 5.582-.151.908.163 1.738.538 2.597.856.16.06.332.117.468.222.052.04.186.219.24.18.23-.161.175-.554.132-.79-.17-.914-1.035-1.197-1.636-1.776-.139-.134-.72-.59-.444-.822.214-.18.58-.059.778.08.662.466 1.126 1.27 2.012 1.399.395.057.998-.339.899-.777-.057-.248-.281-.443-.429-.64-.376-.499-.805-.944-1.187-1.433-.358-.458-.551-.979-1.002-1.372-.437-.383-1.03-.535-1.503-.871-.402-.286-.634-.714-1.165-.798-.582-.092-1.246.516-1.76.719-.415.163-.876.217-1.271.426-.386.204-.646.58-.988.846-.312.241-.713.358-1.01.62-.62.55-1.355 1.765-1.74 2.501-.31.597-.965.795-1.434 1.217-.426.383-.557 1.188-.39 1.724l.134-.063Z" clip-rule="evenodd"/>
  <path fill="#9F0A1B" fill-rule="evenodd" d="m14.303 8.193-.135.063a.103.103 0 0 1-.142-.062c-.177-.57-.033-1.423.42-1.83.237-.214.522-.372.787-.55.247-.168.477-.355.624-.637.39-.746 1.136-1.974 1.764-2.53.298-.265.7-.382 1.014-.626.346-.27.612-.648 1.002-.855.399-.211.863-.266 1.281-.43.308-.121.668-.388 1.032-.562.264-.126.531-.203.783-.163.287.045.494.182.683.347.171.151.327.327.525.468.476.338 1.072.492 1.512.877.456.399.652.924 1.015 1.387.382.489.812.934 1.188 1.434.074.098.166.195.248.299a1 1 0 0 1 .199.38c.047.208-.034.41-.185.57-.213.228-.564.368-.83.33-.463-.068-.818-.31-1.143-.598-.306-.273-.585-.588-.913-.819a.852.852 0 0 0-.415-.151.328.328 0 0 0-.237.066c-.07.058-.033.138.018.22.117.187.351.374.432.451.298.287.663.501.973.757.33.272.602.59.691 1.075.028.15.06.362.027.544a.511.511 0 0 1-.2.346c-.037.027-.085.034-.14.01a.43.43 0 0 1-.117-.086c-.042-.04-.082-.088-.105-.106-.128-.1-.29-.152-.44-.208-.854-.316-1.678-.69-2.58-.851-1.84-.331-3.722-.18-5.545.152-1.048.19-2.267.512-3.065 1.27a.107.107 0 0 1-.027.018Zm-.104-.177c.826-.777 2.078-1.115 3.158-1.312 1.847-.335 3.753-.486 5.619-.152.913.165 1.749.541 2.614.861.17.063.35.126.495.238.023.018.061.06.102.101a.694.694 0 0 0 .051.046.347.347 0 0 0 .081-.184 1.415 1.415 0 0 0-.026-.474c-.08-.43-.326-.712-.62-.955-.315-.259-.684-.476-.986-.767-.087-.083-.337-.288-.463-.49-.111-.179-.128-.355.023-.483a.534.534 0 0 1 .382-.114c.19.01.39.096.522.19.334.235.619.554.931.832.295.262.615.487 1.036.548.21.03.482-.087.65-.266.103-.11.167-.246.135-.388a.778.778 0 0 0-.161-.299c-.082-.105-.176-.203-.25-.302-.376-.499-.804-.943-1.186-1.431-.354-.453-.543-.97-.988-1.36-.435-.38-1.026-.53-1.496-.863-.204-.145-.365-.326-.542-.481-.16-.14-.335-.26-.58-.3-.27-.042-.557.084-.839.238-.307.168-.606.373-.867.476-.411.162-.868.213-1.26.42-.38.202-.636.575-.973.837-.31.24-.709.355-1.004.616-.613.543-1.338 1.744-1.718 2.472-.163.315-.416.525-.69.711-.258.174-.535.326-.766.534-.37.333-.5 1.006-.391 1.505l.008-.004Z" clip-rule="evenodd"/>
</svg>
