<svg xmlns="http://www.w3.org/2000/svg" width="215" height="38" fill="none" viewBox="0 0 215 38">
  <path fill="#F0F0F0" fill-rule="evenodd" d="M14.133 28.342c-.073-.145-.34-.664-.597-.979-.587-.718-1.363-1.439-2.088-2.14-1.444-1.399-2.608-2.839-2.832-3.991-.246-1.267-.062-2.246.31-2.988.648-1.299 1.937-2.035 3.513-2.144 1.77-.124 3.9.62 5.155 1.767a1.9 1.9 0 0 1 .117 2.684 1.905 1.905 0 0 1-2.687.118c-.477-.436-1.242-.718-1.948-.775a2.191 2.191 0 0 0-.543.016c-.062.01-.155.044-.205.062-.005.09-.014.346.023.536.025.132.142.25.252.397.26.348.602.707.973 1.079.917.918 1.995 1.888 2.8 2.846 1.211 1.443 1.786 2.958 1.504 4.297-.267 1.267-1.326 2.72-4.26 3.735a7.578 7.578 0 0 1-3.722.293c-1.556-.267-2.954-1.05-4.19-2.003a1.899 1.899 0 0 1-.344-2.664 1.904 1.904 0 0 1 2.668-.344c.75.577 1.57 1.104 2.512 1.267.606.104 1.25.062 1.831-.14.666-.23 1.172-.462 1.531-.723.08-.057.176-.152.227-.206Z" clip-rule="evenodd"/>
  <path fill="#F0F0F0" fill-rule="evenodd" d="M23.343 27.512c1.268 1.179 3.084 1.844 4.865 1.154a1.9 1.9 0 1 1 1.376 3.543c-3.937 1.525-8.063-.425-10.19-3.476-1.34-1.922-1.866-4.238-1.24-6.343.425-1.43 1.372-2.794 3.05-3.868 2.516-1.612 5.224-.872 6.882.713 1.197 1.144 1.8 2.72 1.591 4.157-.22 1.517-1.28 3.116-4.02 3.798-.763.19-1.535.285-2.314.322Zm-1.615-3.728c.159-.04.325-.06.496-.056.847.015 1.689-.02 2.513-.226.4-.1.72-.225.957-.394.112-.081.203-.157.219-.262.045-.316-.195-.614-.457-.866-.53-.507-1.393-.775-2.198-.26-.777.498-1.26 1.091-1.458 1.753a2.65 2.65 0 0 0-.072.311Zm35.287-4.35c-.156-2.747.117-5.525.516-7.712.236-1.29 1.306-4.66 2.933-6.125 1.15-1.036 2.511-1.401 4.037-.732 1.021.447 1.773 1.44 2.11 2.828.458 1.887.127 4.69.057 5.735-.222 3.308-.768 8.958-2.62 13.258a5.76 5.76 0 0 1-.04.09c.78.507 1.741.824 2.922.878.196.009.392 0 .587-.024-.144-.39-.266-.79-.364-1.197-1.052-4.344.772-8.794 5.153-8.777 1.901.008 2.97 1.053 3.48 2.517.512 1.466.263 3.527-.142 4.678-.496 1.41-1.455 2.812-2.675 3.958.625.327 1.377.418 2.254.148 1.297-.398 2.233-1.233 3.05-2.197 1.015-1.198 1.85-2.597 2.767-3.874.463-.645.942-1.263 1.458-1.829a9.314 9.314 0 0 1 1.3-1.58c2.644-2.571 6.594-3.461 9.931-.37 1.21 1.12.538 2.212.362 2.488-.251.392-.732.914-1.686.881a2.432 2.432 0 0 1-.745-.159c-.198-.073-.76-.302-.845-.337-2.513-.493-4.098.237-5.329 1.445-.707 1.197-.96 2.633-.266 3.848.708 1.24 1.847 1.928 3.236 2.218 2.641.55 3.994-.529 5.157-2.02 1.079-1.381 2.038-3.033 3.312-4.484a1.904 1.904 0 0 1 2.684-.178 1.9 1.9 0 0 1 .177 2.682c-1.224 1.395-2.136 2.989-3.172 4.317-2.009 2.573-4.376 4.353-8.935 3.403-2.497-.521-4.493-1.828-5.764-4.056a6.68 6.68 0 0 1-.273-.532c-1.386 1.76-3.011 3.263-5.3 3.966-2.794.858-5.108.028-6.752-1.624-.922.348-1.882.528-2.834.485-1.888-.087-3.445-.57-4.718-1.35-1.286 1.59-2.9 2.712-4.872 3.12-4.147.858-7.914-3.2-6.9-7.215.904-3.573 3.432-5.988 6.75-6.571Zm2.303 8.004c-.782-1.176-1.342-2.549-1.72-4.03l-.046-.183c-1.77.402-3.104 1.76-3.597 3.71-.36 1.423.97 2.869 2.44 2.565 1.23-.255 2.17-1.021 2.923-2.062Zm11.54-1.816c.534-.628.953-1.338 1.197-2.031.137-.39.246-.986.23-1.56a3.292 3.292 0 0 0-.097-.572c-1.249.062-1.55 1.365-1.527 2.64.01.491.075 1.011.197 1.523Zm-9.998-5.67a1.896 1.896 0 0 1 .324 2.099 14.853 14.853 0 0 0 .202.79c1.004-3.43 1.323-7.245 1.486-9.667.05-.743.306-2.556.134-4.044-.02-.17-.07-.382-.12-.56a2.41 2.41 0 0 0-.227.267c-.23.329-.428.712-.6 1.101-.423.953-.691 1.95-.785 2.466-.388 2.124-.664 4.898-.414 7.548Z" clip-rule="evenodd"/>
  <path fill="#F0F0F0" fill-rule="evenodd" d="M107.784 18.077a2.03 2.03 0 0 1 .56-.224 2.25 2.25 0 0 1 1.172.05c.272.083.987.416 1.077.458.747.208 1.489.448 2.249.606.631.13 1.301.305 1.943.19.206-.177.694-.585.944-.717.86-.45 1.685-.421 2.479.193.452.348.834.92 1.077 1.668.171-.182.353-.354.546-.516 1.774-1.484 3.19-1.572 4.166-1.246 1.046.348 1.929 1.325 2.407 2.854.384 1.225.556 2.88.691 4.418.092 1.063.323 2.526.364 2.778a1.9 1.9 0 0 1-2.926 2.416c-.328-.346-.657-.944-.847-1.781-.229-1.016-.323-2.598-.481-4.156-.087-.855-.378-2.033-.542-2.65a3.95 3.95 0 0 0-.389.28c-.302.253-.536.57-.736.909-.422.714-.763 1.468-1.074 2.237-.621 1.534-.921 3.442-1.744 4.871-.366.637-.811.802-1.006.877a1.85 1.85 0 0 1-1.264.038c-.453-.143-1.032-.467-1.268-1.318a2.055 2.055 0 0 1-.072-.567c.001-.206.115-.822.138-1.084.054-.599.089-1.198.118-1.798.035-.74.349-2.485.396-4.03-1.133.257-2.323.123-3.45-.097.046.162.084.328.114.498.45 2.512-.556 5.834-2.526 7.862-1.491 1.534-3.471 2.362-5.719 1.897-7.466-1.543-8.556-10.168-4.597-13.808 1.712-1.575 4.378-2.395 7.969-1.202.08.027.157.058.231.094Zm-.321 3.54a1.894 1.894 0 0 1-1.111-.028c-1.875-.623-3.297-.432-4.191.391-2.124 1.953-1.215 6.464 2.791 7.292 1.164.241 2.084-.51 2.728-1.45.797-1.165 1.22-2.698 1.001-3.918-.112-.625-.495-1.101-.809-1.6a13.684 13.684 0 0 1-.409-.688Z" clip-rule="evenodd"/>
  <path fill="#F0F0F0" fill-rule="evenodd" d="M130.523 19.794c.08-.099.73-.902 1.016-1.162.39-.354.79-.525 1.106-.593.461-.1.887-.043 1.277.132.395.178.831.496 1.098 1.175.222.565.34 1.215.391 1.904 1.298-1.1 2.824-1.538 4.464-.987 2.175.73 3.071 2.61 3.609 4.711.155.607.285 1.224.477 1.779.108.311.195.618.436.794.162.118.375.14.652.12-.378-1.119-.459-2.496-.078-4.172.982-4.32 4.395-5.448 6.741-4.836 1.443.376 2.585 1.396 3.006 2.85.349 1.203.223 2.827-1.07 4.68-.42.6-.901 1.172-1.422 1.701 1.21-.102 2.449-.508 3.417-1.135a1.9 1.9 0 1 1 2.071 3.187c-1.992 1.291-4.735 1.966-7.11 1.72-.999-.102-1.932-.365-2.747-.785a8.325 8.325 0 0 1-1.906.51c-1.661.232-2.808-.107-3.653-.67-.86-.573-1.446-1.43-1.842-2.473-.316-.83-.505-1.802-.764-2.723-.191-.683-.313-1.415-1.029-1.656-.211-.07-.399.004-.573.117-.283.184-.535.452-.775.757-1.245 1.582-2.038 4.056-2.325 5.152-.455 1.74-2.014 1.484-2.196 1.451-.364-.064-1.387-.318-1.558-1.638-.017-.123.045-.983.054-1.316a77.7 77.7 0 0 1 .083-2.102c.04-.77.163-1.686.243-2.621-.87.57-1.78 1.077-2.748 1.461a1.905 1.905 0 0 1-2.471-1.064 1.901 1.901 0 0 1 1.066-2.468c1.106-.439 2.105-1.097 3.06-1.8Zm18.038 6.285a9.902 9.902 0 0 0 1.966-2.064c.319-.457.511-.858.548-1.22.016-.156-.009-.29-.11-.364-.194-.142-.469-.156-.738-.096-.697.155-1.282.84-1.546 2.002-.156.682-.199 1.261-.12 1.742Z" clip-rule="evenodd"/>
  <path fill="#F0F0F0" fill-rule="evenodd" d="M172.96 19.802c.183-1.81.45-3.718.939-5.467.717-2.57 1.92-4.803 3.798-6.184.749-.55 1.361-.411 1.658-.335.709.181 1.321.64 1.432 1.653a2.02 2.02 0 0 1-.042.675c-.044.192-.301.714-.376.951a32.767 32.767 0 0 0-.464 1.627c-.487 1.836-1.164 3.618-1.917 5.36a47.371 47.371 0 0 1-1.321 2.803c-.119 1.347-.194 2.622-.295 3.697-.064.674-.265 1.687-.232 2.631.007.186.024.369.063.54.019.082-.01.186.069.224.941.445 2.074-.094 3.225-.749.513-.291 1.022-.63 1.516-.996a8.064 8.064 0 0 1-.508-3.392c.121-1.682 1.264-3.818 2.872-5.042 1.279-.972 2.803-1.386 4.309-.952.792.228 1.33.636 1.703 1.11.533.679.754 1.555.641 2.533-.164 1.425-1.182 3.168-1.769 3.937-.526.691-1.336 1.61-2.315 2.56a4.642 4.642 0 0 0 1.74 1c2.78.85 5.559-1.461 6.865-3.816.487-.879.81-1.835.967-2.827a29.95 29.95 0 0 1-.166-1.274 2.45 2.45 0 0 1 .132-1.069c.339-.873.984-1.192 1.671-1.243.34-.025.988-.032 1.646.676 1.054 1.134 2.627 1.968 4.206 1.883.458-.024.9-.131 1.306-.338.133-.141.372-.391.476-.47a2.04 2.04 0 0 1 .812-.378 1.88 1.88 0 0 1 1.424.24c.341.207.761.562.907 1.321.074.383.074.94-.038 1.614-.158.946-.542 2.279-.823 3.567-.093.422-.156.99-.196 1.436.132-.052.27-.111.398-.176a1.9 1.9 0 1 1 1.714 3.393c-1.938.976-3.257.922-4.057.602-1.135-.454-1.855-1.51-1.925-3.105-.048-1.088.254-2.557.583-3.94a8.275 8.275 0 0 1-.377.029c-1.441.077-2.893-.264-4.206-.896a12.34 12.34 0 0 1-1.126 2.796c-2.098 3.784-6.839 6.974-11.305 5.61-1.329-.405-2.535-1.177-3.517-2.18-.548.398-1.111.768-1.678 1.09-2.362 1.343-4.806 1.794-6.737.88-1.319-.625-2.011-1.8-2.229-3.24a6.283 6.283 0 0 1-.063-.668c-1.758 2.057-3.802 3.754-6.111 4.611-2.323.862-4.147.675-5.494.014-2.234-1.097-3.363-3.666-3.17-6.347.277-3.847 3.148-7.667 8.11-6.79a1.901 1.901 0 1 1-.664 3.743c-2.315-.41-3.521 1.525-3.651 3.32-.078 1.083.151 2.22 1.053 2.663.612.3 1.436.227 2.491-.165 1.747-.648 3.261-1.948 4.587-3.5 1.356-1.586 2.507-3.44 3.459-5.25Zm11.332 3.441c.377-.414.696-.796.943-1.118a6.83 6.83 0 0 0 .861-1.523l.027-.076c-.287.11-.549.36-.791.607-.556.57-.986 1.334-1.032 1.98l-.008.13Z" clip-rule="evenodd"/>
  <path fill="#F0F0F0" fill-rule="evenodd" d="M170.337 15.46a1.902 1.902 0 0 1-1.866-1.935 1.902 1.902 0 0 1 1.938-1.864c4.626.087 9.191.324 13.706-.847a1.9 1.9 0 1 1 .956 3.677c-4.854 1.26-9.759 1.062-14.734.969Zm-99.393.503a1.9 1.9 0 1 1-1.743-3.377c1.703-.878 3.231-1.82 4.684-3.088a1.905 1.905 0 0 1 2.684.182c.69.79.61 1.991-.182 2.68-1.69 1.475-3.46 2.583-5.443 3.603Z" clip-rule="evenodd"/>
</svg>
