<svg xmlns="http://www.w3.org/2000/svg" width="41" height="46" fill="none" viewBox="0 0 41 46">
  <path fill="#3F1A0A" fill-rule="evenodd" d="M16.25 40.452c-.081.623.082 1.277-.101 1.888a7.295 7.295 0 0 1-.473 1.224c-.184.356-.468.681-.546 1.086-.032.168.014.351.02.52.003.15-.027.337.04.477.233.486 1.002.33 1.432.327 1.04-.008 2.077.004 3.108-.136.389-.053.887-.062 1.2-.334.288-.252.133-.692.09-1.016-.067-.483.031-1.1-.18-1.55-.117-.25-.355-.393-.514-.611-.36-.496-.01-.825-.056-1.354-.002-.025-.063-.495-.11-.505-.292-.067-.628-.022-.927-.034-1.017-.041-2.023.075-3.043.025l.06-.007Zm6.205-.383c-.085.574.085 1.161-.004 1.733-.042.268-.23.476-.32.726a4.918 4.918 0 0 0-.25 2.213c.035.294.112.656.384.831.696.45 2.016.112 2.808.138.638.022 1.26.04 1.897-.008.265-.02.566.031.754-.195.61-.737-.28-1.79-.529-2.487-.103-.29-.194-.592-.343-.864-.137-.25-.354-.46-.466-.723-.102-.239-.1-.495-.123-.75a10.299 10.299 0 0 1-.042-.767c0-.051.027-.204-.022-.239-.216-.152-.796.092-1.028.12-.905.11-1.823.22-2.736.236l.02.036Z" clip-rule="evenodd"/>
  <path fill="#F1D88E" fill-rule="evenodd" d="M16.894 41.278c.36.016.733-.034 1.106-.073.419-.044.838-.073 1.24.012a.107.107 0 0 1 .082.089c.01.052.022.306.024.325.017.186 0 .382-.013.576-.01.178-.017.355.025.52a.125.125 0 0 1-.029.123.142.142 0 0 1-.097.043.487.487 0 0 1-.125-.014c-.048-.01-.1-.026-.135-.026-.188-.001-.375-.003-.563 0-.51.005-1.096.143-1.6.091a.107.107 0 0 1-.094-.098c-.006-.051-.002-.302-.002-.319.001-.354.006-.711.037-1.065a.102.102 0 0 1 .05-.19h.062a.09.09 0 0 1 .032.006Zm.06.205c-.03.347-.035.697-.036 1.045v.22c.477.029 1.015-.094 1.49-.099.188-.002.376 0 .565 0a.76.76 0 0 1 .151.025l.015.003a2.218 2.218 0 0 1-.01-.482c.01-.184.03-.37.013-.545a43.652 43.652 0 0 1-.017-.248c-.36-.063-.731-.034-1.104.005-.359.038-.719.085-1.067.076Zm6.319-.296-.066-.195a.102.102 0 0 1 .1-.134c.608.02 1.215.008 1.823.016.08.001.32-.024.487-.006.103.011.182.045.22.087a.28.28 0 0 1 .045.15c.014.18-.026.55-.024.614.008.26.062.514.078.772a.112.112 0 0 1-.063.115.162.162 0 0 1-.093.014c-.028-.002-.065-.016-.088-.014-.146.007-.29.02-.436.031-.642.054-1.29-.07-1.925.022a.096.096 0 0 1-.097-.04.118.118 0 0 1-.02-.077c.002-.081.046-.491.05-.514.058-.288-.004-.554.01-.841Zm.153 1.256c.6-.063 1.209.042 1.813-.008.147-.013.294-.025.442-.033l.043.003c-.021-.226-.064-.45-.07-.68-.003-.055.028-.344.026-.536a.991.991 0 0 0-.007-.102l-.025-.008a.702.702 0 0 0-.12-.013c-.153-.006-.335.013-.4.012-.56-.008-1.12.002-1.68-.013l.026.075a.101.101 0 0 1 .005.038c-.018.305.047.585-.013.889a10.2 10.2 0 0 0-.04.376Z" clip-rule="evenodd"/>
  <path fill="#fff" fill-rule="evenodd" d="M15.075 38.006c-.096.3-.111.547-.046.855.088.414.21.852.535 1.151.114.105.26.136.399.193.521.214.984.2 1.542.231.34.02.679.052 1.02.062.488.016.922-.008 1.403-.062.23-.026.489-.044.677-.192.143-.113.194-.286.27-.443.09-.189.133-.377.198-.573.106-.32.216-.574.135-.913-.034-.145-.034-.588-.244-.602-.25-.017-.537.126-.79.148-.786.068-1.58.127-2.37.108a38.875 38.875 0 0 1-2.409-.116c-.236-.021-.487 0-.72-.043m7.447-.209c-.052.088-.322.08-.363.204-.159.478-.187 1.207.32 1.834.186.23.095.386.402.451.288.062.93.059 1.215.02.457-.062.964-.044 1.418-.132.472-.09 1.09-.07 1.455-.414.468-.441.705-.974.741-1.604.011-.19-.155-.689-.39-.79" clip-rule="evenodd"/>
  <path fill="#600C13" fill-rule="evenodd" d="M12.714 33.132c.015.404.282 1.475.46 1.824.137.264.232.544.378.805.087.156.12.332.2.49.212.427.491.864.78 1.242.123.163.214.357.385.478.453.319 1.137.169 1.652.173 1.28.013 2.557.094 3.826-.105a.85.85 0 0 0 .547-.386c.09-.155.173-.43.393-.434.247-.005.375.261.543.396.166.132.382.164.586.188.6.073 1.26.12 1.862.058.342-.036 1.798-.183 2.172-.304.296-.096 1.092-.466 1.242-.517.313-.107.608-.372.858-.581.572-.478.579-1.052.643-1.719.055-.568.132-1.126.174-1.696l-16.7.088Z" clip-rule="evenodd"/>
  <path fill="#BD111F" fill-rule="evenodd" d="M8.888 30.766c.852 1.237 3.108 2.44 4.461 3.057 1.048.478 2.145.968 3.271 1.24 2.34.568 5.365.401 7.694-.147.835-.196 5.068-1.662 6.25-2.41.872-.554 2.2-1.511 2.61-2.517.003-.007-2.6-3.588-2.408-5.645.092-.974-20.065-1.26-20.143.285-.134 2.642-1.754 6.402-1.735 6.137Z" clip-rule="evenodd"/>
  <path fill="#BD111F" fill-rule="evenodd" d="M8.839 30.676c.023-.044.07-.132.115-.234.407-.906 1.46-3.717 1.566-5.818.006-.113.083-.226.244-.324.191-.117.512-.223.94-.315 2.754-.592 10.043-.66 14.772-.403 2.04.111 3.605.286 4.135.5a.56.56 0 0 1 .203.125.186.186 0 0 1 .054.147c-.068.726.223 1.645.619 2.525.601 1.339 1.45 2.588 1.7 2.948l.073.106c.032.05.01.09.01.094-.417 1.023-1.763 2.002-2.65 2.564-1.19.752-5.443 2.227-6.283 2.425-2.343.55-5.386.718-7.741.147-1.132-.275-2.236-.767-3.29-1.247-1.353-.617-3.596-1.818-4.476-3.054-.023-.016-.049-.046-.044-.103a.102.102 0 0 1 .053-.083Zm.18.1c.878 1.2 3.057 2.355 4.373 2.955 1.042.474 2.133.963 3.252 1.234 2.326.564 5.332.396 7.646-.147.832-.196 5.043-1.654 6.219-2.399.843-.534 2.124-1.448 2.549-2.419a11.86 11.86 0 0 1-.04-.058c-.252-.364-1.11-1.627-1.719-2.98-.409-.91-.703-1.863-.636-2.616a.34.34 0 0 0-.054-.04 1.42 1.42 0 0 0-.307-.109c-.674-.176-2.077-.316-3.837-.411-4.711-.257-11.973-.192-14.718.398-.397.085-.698.18-.876.29-.086.052-.143.1-.146.16-.121 2.388-1.447 5.681-1.705 6.141Z" clip-rule="evenodd"/>
  <path fill="#35190A" fill-rule="evenodd" d="M9.73 27.907c.242.4.826.721 1.305 1.106.627.503 1.328 1.026 2.084 1.322.566.22 1.213.29 1.809.398.903.164 1.8.345 2.717.418.781.061 1.568.021 2.347.085 2.29.187 3.886.123 6.097-.67.512-.184 3.046-1.114 3.497-1.475a16.43 16.43 0 0 0 1.603-1.472c.231-.239.222-.246.409-.522.262-.388-.296-1.324-.346-1.274-.269.262-2.21 1.3-3.04 1.87-2.095 1.436-4.816 1.8-7.297 1.937-2.42.133-5.407-.217-7.59-1.327-.936-.477-3.18-1.912-3.317-1.864-.149.051-.477 1.142-.278 1.468Z" clip-rule="evenodd"/>
  <path fill="#35190A" fill-rule="evenodd" d="M9.642 27.96c-.064-.105-.086-.277-.073-.474a3.08 3.08 0 0 1 .18-.805c.045-.12.093-.214.134-.267a.214.214 0 0 1 .09-.072.155.155 0 0 1 .083-.001c.053.011.16.06.308.137.674.359 2.26 1.353 3.008 1.735 2.168 1.102 5.134 1.447 7.538 1.315 2.462-.135 5.164-.493 7.243-1.918.827-.568 2.76-1.598 3.027-1.86.026-.026.062-.04.11-.026a.143.143 0 0 1 .053.03.513.513 0 0 1 .073.087c.101.143.261.45.325.744.047.216.04.425-.058.569-.191.283-.183.29-.42.536a16.76 16.76 0 0 1-1.612 1.48c-.456.364-3.01 1.305-3.527 1.49-2.226.8-3.834.866-6.14.677-.78-.063-1.566-.023-2.347-.085-.921-.073-1.821-.255-2.728-.419-.601-.11-1.256-.18-1.827-.403-.766-.3-1.477-.828-2.112-1.338-.489-.392-1.08-.723-1.328-1.132Zm21.6-1.998c-.456.342-2.196 1.282-2.972 1.815-2.11 1.447-4.85 1.817-7.349 1.954-2.437.134-5.444-.22-7.642-1.337-.75-.382-2.337-1.378-3.012-1.736a3.056 3.056 0 0 0-.23-.108l-.012.017a1.2 1.2 0 0 0-.084.185c-.078.208-.15.5-.167.748-.01.147-.004.277.043.355.238.392.813.702 1.282 1.079.62.497 1.31 1.014 2.058 1.306.56.219 1.2.286 1.79.393.899.163 1.792.344 2.706.416.782.062 1.568.022 2.348.085 2.273.186 3.858.124 6.053-.664.508-.183 3.02-1.1 3.468-1.458a16.546 16.546 0 0 0 1.593-1.463c.225-.233.216-.24.398-.509.08-.118.06-.299.012-.477-.06-.226-.214-.49-.282-.6Z" clip-rule="evenodd"/>
  <path fill="#E5D162" fill-rule="evenodd" d="M18.067 29.28a.557.557 0 0 1 .618-.49c.927.113 1.914-.126 2.847-.142.152-.002.504-.069.767-.069.236 0 .433.054.553.127a.555.555 0 0 1 .252.33c.026.088.046.49.048.554.073.578.054 1.129 0 1.71-.004.043-.011.493-.02.586-.037.374-.337.47-.376.483-.605.204-1.405.035-2.03.034-.308 0-1.007.125-1.513.145-.335.014-.612-.03-.767-.103a.818.818 0 0 1-.453-.575c-.038-.156-.027-.345-.044-.482a5.612 5.612 0 0 1 .118-2.107Zm.998.634a4.7 4.7 0 0 0-.017 1.341c.006.046.01.12.014.19.096.001.217 0 .313-.008.496-.04 1.076-.134 1.354-.133.296 0 .633.046.968.069.117.008.233.014.346.01l.007-.185c.047-.505.067-.983.002-1.487l-.001-.015c-.201.022-.395.05-.501.051-.811.014-1.663.177-2.485.167Z" clip-rule="evenodd"/>
  <path fill="#BD111F" fill-rule="evenodd" d="M9.103 23.326c.852 1.236 3.108 2.44 4.461 3.057 1.048.477 2.145.968 3.271 1.24 2.34.568 5.365.4 7.694-.147.835-.196 5.067-1.662 6.25-2.41.872-.554 2.2-1.511 2.61-2.517.003-.007-2.6-3.588-2.408-5.645.091-.974-20.065-1.26-20.143.285-.134 2.642-1.754 6.402-1.735 6.137Z" clip-rule="evenodd"/>
  <path fill="#BD111F" fill-rule="evenodd" d="M9.054 23.236c.023-.044.07-.132.115-.235.407-.905 1.46-3.716 1.566-5.817.006-.113.083-.226.244-.324.191-.117.512-.223.94-.315 2.754-.592 10.043-.66 14.772-.403 2.04.111 3.605.286 4.135.5a.56.56 0 0 1 .203.125.186.186 0 0 1 .054.147c-.068.726.223 1.645.619 2.525.601 1.339 1.45 2.588 1.7 2.948l.073.106c.032.05.01.09.009.094-.416 1.023-1.763 2.002-2.65 2.564-1.188.752-5.442 2.227-6.282 2.425-2.343.55-5.386.718-7.741.147-1.132-.275-2.236-.767-3.29-1.247-1.353-.617-3.596-1.818-4.476-3.054-.023-.016-.049-.046-.045-.103a.102.102 0 0 1 .054-.083Zm.18.1c.878 1.2 3.057 2.355 4.373 2.955 1.042.474 2.133.962 3.252 1.234 2.326.564 5.332.396 7.646-.147.832-.196 5.043-1.654 6.219-2.399.843-.534 2.124-1.448 2.549-2.419a11.86 11.86 0 0 1-.04-.058c-.253-.364-1.11-1.627-1.719-2.98-.409-.91-.703-1.863-.636-2.616a.34.34 0 0 0-.054-.04 1.42 1.42 0 0 0-.307-.109c-.674-.176-2.077-.316-3.837-.411-4.711-.257-11.973-.192-14.718.398-.398.085-.698.18-.876.29-.086.052-.143.1-.146.16-.121 2.387-1.447 5.681-1.705 6.141Z" clip-rule="evenodd"/>
  <path fill="#35190A" fill-rule="evenodd" d="M9.944 20.467c.243.4.827.721 1.306 1.106.627.503 1.328 1.026 2.084 1.322.566.22 1.213.29 1.809.398.903.163 1.8.345 2.717.418.781.061 1.567.021 2.347.085 2.29.187 3.886.123 6.097-.67.512-.184 3.046-1.114 3.497-1.475.577-.46 1.091-.942 1.603-1.472.231-.239.222-.246.409-.522.262-.388-.296-1.324-.347-1.274-.268.262-2.209 1.3-3.04 1.87-2.094 1.436-4.815 1.8-7.296 1.937-2.42.133-5.407-.217-7.59-1.327-.936-.477-3.18-1.912-3.317-1.864-.149.051-.477 1.142-.279 1.468Z" clip-rule="evenodd"/>
  <path fill="#35190A" fill-rule="evenodd" d="M9.857 20.52c-.064-.105-.086-.277-.073-.474.018-.267.096-.581.18-.805.044-.12.093-.215.133-.267a.215.215 0 0 1 .091-.072.155.155 0 0 1 .083-.002c.053.012.16.06.308.138.674.358 2.26 1.353 3.008 1.735 2.168 1.102 5.134 1.447 7.538 1.315 2.462-.135 5.164-.493 7.243-1.919.827-.567 2.76-1.598 3.027-1.859.026-.026.062-.04.11-.026a.143.143 0 0 1 .053.03.518.518 0 0 1 .073.087c.101.143.261.45.325.744.047.216.04.425-.058.569-.192.283-.183.29-.42.536a16.748 16.748 0 0 1-1.612 1.48c-.456.364-3.01 1.305-3.527 1.49-2.226.8-3.834.866-6.14.677-.78-.063-1.566-.023-2.347-.085-.921-.073-1.821-.255-2.728-.419-.601-.11-1.256-.18-1.828-.404-.765-.299-1.476-.828-2.11-1.337-.49-.392-1.081-.724-1.33-1.132Zm21.6-1.998c-.456.341-2.196 1.282-2.973 1.815-2.109 1.447-4.85 1.817-7.348 1.954-2.437.134-5.444-.22-7.642-1.337-.75-.382-2.337-1.378-3.012-1.736a3.114 3.114 0 0 0-.23-.108l-.012.017c-.027.045-.056.11-.084.185-.078.208-.15.5-.168.748-.01.146-.003.277.044.355.238.392.813.702 1.282 1.079.62.497 1.31 1.014 2.058 1.306.56.219 1.2.286 1.789.393.9.163 1.793.344 2.707.416.781.061 1.568.022 2.348.085 2.273.186 3.858.124 6.053-.664.508-.183 3.02-1.1 3.468-1.458a16.556 16.556 0 0 0 1.593-1.463c.225-.233.216-.24.398-.509.08-.119.06-.299.012-.478-.06-.225-.214-.49-.282-.6Z" clip-rule="evenodd"/>
  <path fill="#E5D162" fill-rule="evenodd" d="M18.282 21.84a.556.556 0 0 1 .618-.49c.927.113 1.914-.126 2.847-.142.152-.002.504-.069.767-.069.236 0 .432.054.553.127a.554.554 0 0 1 .252.33c.026.088.045.49.048.554.073.578.054 1.129 0 1.71-.004.043-.011.493-.02.586-.037.374-.337.47-.376.483-.605.204-1.405.035-2.03.034-.308-.001-1.007.125-1.513.145-.335.014-.613-.03-.767-.103a.818.818 0 0 1-.453-.575c-.038-.156-.027-.345-.044-.482a5.612 5.612 0 0 1 .118-2.107Zm.998.634a4.7 4.7 0 0 0-.017 1.341c.006.045.01.12.014.19.096.001.217 0 .313-.008.495-.041 1.076-.134 1.354-.134.296.001.633.047.968.07.117.008.233.014.345.01.004-.092.006-.17.008-.185.047-.505.067-.983.002-1.487l-.001-.015c-.202.022-.395.05-.501.051-.811.013-1.663.177-2.485.167Z" clip-rule="evenodd"/>
</svg>
