<svg xmlns="http://www.w3.org/2000/svg" width="41" height="47" fill="none" viewBox="0 0 41 47">
  <g clip-path="url(#a)">
    <path fill="#3F1A0A" fill-rule="evenodd" d="M16.25 40.742c-.081.627.082 1.286-.101 1.901a7.35 7.35 0 0 1-.473 1.233c-.184.36-.468.687-.546 1.094-.032.17.014.354.02.524.003.151-.027.34.04.48.233.49 1.002.333 1.432.33 1.04-.008 2.077.003 3.108-.138.389-.053.887-.061 1.2-.335.288-.254.133-.698.09-1.024-.067-.487.031-1.107-.18-1.56-.117-.252-.355-.397-.514-.617-.36-.499-.01-.83-.056-1.363-.002-.025-.063-.498-.11-.509-.292-.067-.628-.022-.927-.034-1.017-.041-2.023.076-3.043.025l.06-.007Zm6.205-.386c-.085.579.085 1.17-.004 1.746-.042.27-.23.479-.32.731a4.986 4.986 0 0 0-.25 2.23c.035.295.112.66.384.836.696.453 2.016.112 2.808.14.638.02 1.26.04 1.897-.01.265-.02.566.032.754-.196.61-.742-.28-1.801-.529-2.505-.103-.292-.194-.596-.343-.87-.137-.25-.354-.464-.466-.728-.102-.24-.1-.499-.123-.754a10.444 10.444 0 0 1-.042-.774c0-.051.027-.206-.022-.24-.216-.153-.796.092-1.028.12-.905.111-1.823.222-2.736.238l.02.036Z" clip-rule="evenodd"/>
    <path fill="#F1D88E" fill-rule="evenodd" d="M16.894 41.574c.36.017.733-.035 1.106-.073.419-.045.838-.074 1.24.012a.107.107 0 0 1 .082.09c.01.052.022.308.024.326.017.188 0 .386-.013.581a1.72 1.72 0 0 0 .025.523.126.126 0 0 1-.029.125.142.142 0 0 1-.097.043.487.487 0 0 1-.125-.015c-.048-.01-.1-.026-.135-.026-.188 0-.375-.002-.563 0-.51.005-1.096.145-1.6.093a.107.107 0 0 1-.094-.1c-.006-.05-.002-.304-.002-.32a12.8 12.8 0 0 1 .037-1.073.103.103 0 0 1 .05-.192h.062a.09.09 0 0 1 .032.006Zm.06.207c-.03.349-.035.702-.036 1.052v.223c.477.028 1.015-.096 1.49-.1.188-.003.376-.002.565 0a.75.75 0 0 1 .151.024l.015.003a2.243 2.243 0 0 1-.01-.486c.01-.184.03-.371.013-.548a44.427 44.427 0 0 1-.017-.25c-.36-.064-.731-.034-1.104.005-.359.038-.719.085-1.067.077Zm6.319-.299-.066-.196a.102.102 0 0 1 .1-.136c.608.022 1.216.01 1.824.018.078 0 .32-.025.486-.007.103.012.182.045.22.088.018.023.04.076.045.151.014.182-.026.554-.024.618.008.262.062.518.078.777a.113.113 0 0 1-.063.117.16.16 0 0 1-.093.014c-.028-.003-.065-.016-.088-.015-.146.007-.29.02-.436.032-.642.054-1.29-.07-1.925.022a.096.096 0 0 1-.097-.04.12.12 0 0 1-.02-.078c.002-.082.046-.494.05-.518.058-.29-.004-.558.01-.847Zm.153 1.265c.6-.063 1.209.043 1.813-.008.147-.012.294-.025.442-.033l.043.003c-.021-.227-.064-.453-.07-.685-.003-.055.028-.346.026-.54 0-.036-.005-.08-.007-.102a.226.226 0 0 0-.025-.008.712.712 0 0 0-.12-.014c-.153-.005-.335.014-.4.013-.56-.008-1.12.002-1.68-.013l.026.075a.103.103 0 0 1 .005.039c-.018.306.047.589-.013.895-.004.016-.027.236-.04.378Z" clip-rule="evenodd"/>
    <path fill="#fff" fill-rule="evenodd" d="M15.075 38.279a1.56 1.56 0 0 0-.046.861c.088.416.21.857.535 1.16.114.105.26.136.399.193.521.215.984.202 1.542.233.34.02.679.052 1.02.063.488.016.922-.009 1.403-.063.23-.026.489-.044.677-.194.143-.113.194-.287.27-.445.09-.19.133-.38.198-.578.106-.322.216-.578.135-.92-.034-.145-.034-.592-.244-.606-.25-.017-.537.128-.79.15-.786.068-1.58.128-2.37.108a38.644 38.644 0 0 1-2.409-.117c-.236-.02-.487 0-.72-.042m7.447-.211c-.052.089-.322.08-.363.205-.159.481-.187 1.216.32 1.848.186.232.095.388.402.454.288.062.93.06 1.215.02.457-.063.964-.045 1.418-.133.472-.09 1.09-.072 1.455-.418.468-.444.705-.98.741-1.615.011-.19-.155-.693-.39-.796" clip-rule="evenodd"/>
    <path fill="#600C13" fill-rule="evenodd" d="M12.714 33.37c.015.407.282 1.485.46 1.836.137.267.232.55.378.812.087.157.12.334.2.494.212.43.491.869.78 1.25.123.164.214.36.385.481.453.321 1.137.17 1.652.175 1.28.012 2.557.094 3.826-.106a.851.851 0 0 0 .547-.39c.09-.155.173-.432.393-.436.247-.005.375.263.543.399.166.133.382.165.586.19.6.072 1.26.12 1.862.057.342-.036 1.798-.184 2.172-.305.296-.097 1.092-.47 1.242-.521.313-.108.608-.375.858-.585.572-.482.579-1.06.643-1.731.055-.573.132-1.135.174-1.709l-16.7.089Z" clip-rule="evenodd"/>
    <path fill="#BD111F" fill-rule="evenodd" d="M8.888 30.986c.852 1.246 3.108 2.458 4.461 3.08 1.048.48 2.145.974 3.271 1.25 2.34.571 5.365.402 7.694-.15.835-.197 5.068-1.673 6.25-2.428.872-.556 2.2-1.52 2.61-2.534.003-.007-2.6-3.613-2.408-5.685.092-.981-20.065-1.27-20.143.287-.134 2.66-1.754 6.448-1.735 6.18Z" clip-rule="evenodd"/>
    <path fill="#BD111F" fill-rule="evenodd" d="M8.839 30.896c.023-.044.07-.133.115-.236.407-.912 1.46-3.744 1.566-5.859.006-.114.083-.228.244-.327.191-.117.512-.224.94-.317 2.754-.596 10.043-.665 14.772-.406 2.04.112 3.605.288 4.135.504.098.04.165.084.203.126a.189.189 0 0 1 .054.148c-.068.73.223 1.656.619 2.543.601 1.348 1.45 2.606 1.7 2.969l.073.107c.032.051.01.09.01.094-.417 1.031-1.763 2.017-2.65 2.583-1.19.758-5.443 2.243-6.283 2.442-2.343.554-5.386.723-7.741.148-1.132-.276-2.236-.773-3.29-1.256-1.353-.621-3.596-1.831-4.476-3.076-.023-.015-.049-.046-.044-.104a.102.102 0 0 1 .053-.083Zm.18.1c.878 1.21 3.057 2.373 4.373 2.977 1.042.477 2.133.97 3.252 1.243 2.326.568 5.332.399 7.646-.148.832-.197 5.043-1.666 6.219-2.416.843-.538 2.124-1.459 2.549-2.437a8.506 8.506 0 0 1-.04-.058c-.253-.367-1.11-1.639-1.719-3.002-.409-.917-.703-1.876-.636-2.635a.356.356 0 0 0-.054-.04 1.42 1.42 0 0 0-.307-.11c-.674-.176-2.077-.317-3.837-.414-4.711-.258-11.973-.193-14.718.401-.397.087-.698.182-.876.292-.086.053-.143.101-.146.162-.121 2.404-1.447 5.722-1.705 6.185Z" clip-rule="evenodd"/>
    <path fill="#35190A" fill-rule="evenodd" d="M9.73 28.108c.242.403.826.726 1.305 1.113.627.507 1.328 1.034 2.084 1.331.566.223 1.213.293 1.809.402.903.164 1.8.347 2.717.42.781.062 1.568.022 2.347.086 2.29.188 3.886.124 6.097-.675.512-.185 3.046-1.122 3.497-1.485.577-.463 1.092-.95 1.603-1.483.231-.24.222-.248.409-.526.262-.39-.296-1.333-.346-1.283-.269.264-2.21 1.31-3.04 1.884-2.095 1.446-4.816 1.813-7.297 1.95-2.42.134-5.407-.218-7.59-1.336-.936-.48-3.18-1.926-3.317-1.878-.149.052-.477 1.15-.278 1.48Z" clip-rule="evenodd"/>
    <path fill="#35190A" fill-rule="evenodd" d="M9.642 28.16c-.064-.105-.086-.279-.073-.477.018-.268.096-.585.18-.81.045-.121.093-.217.134-.27a.214.214 0 0 1 .09-.072.154.154 0 0 1 .083-.002c.053.012.16.06.308.14.674.36 2.26 1.362 3.008 1.746 2.168 1.11 5.134 1.458 7.538 1.325 2.462-.136 5.164-.497 7.243-1.932.827-.572 2.76-1.61 3.027-1.873.026-.026.062-.04.11-.026a.142.142 0 0 1 .053.03.52.52 0 0 1 .073.087c.101.144.261.454.325.75.047.218.04.427-.058.573-.192.285-.183.292-.42.54a16.806 16.806 0 0 1-1.612 1.491c-.456.366-3.01 1.314-3.527 1.5-2.226.806-3.834.872-6.14.682-.78-.064-1.566-.024-2.347-.086-.921-.073-1.821-.256-2.728-.422-.601-.11-1.256-.181-1.827-.406-.766-.302-1.477-.834-2.112-1.347-.489-.395-1.08-.729-1.328-1.14Zm21.6-2.012c-.456.344-2.196 1.292-2.973 1.828-2.109 1.457-4.85 1.83-7.348 1.969-2.437.135-5.444-.222-7.642-1.348-.75-.384-2.337-1.387-3.012-1.748a3.003 3.003 0 0 0-.23-.109 1.206 1.206 0 0 0-.097.204 2.9 2.9 0 0 0-.166.753c-.01.148-.004.279.043.358.238.395.813.707 1.282 1.086.62.5 1.31 1.022 2.058 1.316.56.22 1.2.288 1.79.395.899.165 1.792.347 2.706.42.782.062 1.568.022 2.348.086 2.273.187 3.858.124 6.053-.67.508-.183 3.02-1.108 3.468-1.468a16.615 16.615 0 0 0 1.593-1.473c.225-.235.216-.242.398-.513.08-.12.06-.3.012-.48a2.63 2.63 0 0 0-.282-.606Z" clip-rule="evenodd"/>
    <path fill="#E5D162" fill-rule="evenodd" d="M18.067 29.49a.553.553 0 0 1 .619-.493c.926.113 1.913-.128 2.846-.143.152-.002.504-.07.767-.07.236 0 .432.054.553.128a.558.558 0 0 1 .252.333c.026.088.045.493.048.557.073.582.054 1.137 0 1.722-.004.044-.011.498-.02.59-.037.377-.337.474-.376.487-.605.205-1.405.036-2.03.035-.308-.001-1.007.125-1.513.146-.335.013-.612-.03-.767-.104a.822.822 0 0 1-.453-.58c-.038-.156-.027-.347-.044-.485a5.692 5.692 0 0 1 .118-2.122Zm.998.638a4.725 4.725 0 0 0-.017 1.352c.006.045.01.12.014.191.096 0 .217 0 .313-.008.496-.042 1.076-.135 1.354-.135.296.001.633.047.968.07.117.008.233.014.346.01a7.52 7.52 0 0 1 .007-.186c.047-.508.067-.99.002-1.498l-.001-.015c-.201.022-.395.05-.501.052-.811.013-1.663.178-2.485.167Z" clip-rule="evenodd"/>
    <path fill="#60070C" fill-rule="evenodd" d="M4.24 22.696c-.95.559-1.382.262-2.409.159-.373-.038-1.026-.108-1.307.218-.697.805 1.275.97 1.635 1.065 0 0-.187.275-.206.3-.152.19-.326.363-.516.516-.615.495-1.51.86-1.432 1.802.143 1.729 1.82 2.356 3.238 1.507.915-.548 1.619-1.99 2.703-2.672L4.24 22.696Z" clip-rule="evenodd"/>
    <path fill="#60070C" fill-rule="evenodd" d="M1.988 24.207c-.321-.059-.954-.15-1.34-.347-.218-.112-.36-.261-.373-.44-.01-.119.036-.258.171-.415.128-.147.32-.227.536-.262.293-.048.628-.013.86.01.41.041.727.114 1.02.15.416.052.782.024 1.325-.295a.102.102 0 0 1 .14.036l1.708 2.895a.103.103 0 0 1-.034.14c-.533.335-.972.858-1.39 1.364-.435.524-.849 1.029-1.315 1.308-.741.443-1.55.498-2.191.22-.646-.281-1.127-.898-1.202-1.806-.042-.508.175-.86.488-1.153.293-.272.673-.489.982-.738.184-.147.352-.317.5-.501.01-.013.065-.092.115-.166Zm2.214-1.372c-.548.303-.932.325-1.366.271-.29-.036-.605-.108-1.015-.15-.217-.021-.531-.055-.806-.01-.165.027-.316.08-.414.194-.087.101-.128.187-.122.264.01.117.12.2.262.273.446.227 1.231.306 1.444.362.038.01.074.034.077.094 0 .003.004.027-.015.058l-.008.012c-.03.046-.188.276-.206.298a3.43 3.43 0 0 1-.531.533c-.306.246-.682.46-.971.728-.269.25-.46.55-.424.986.068.82.496 1.38 1.08 1.634.586.255 1.326.199 2.003-.207.45-.269.845-.759 1.262-1.263.411-.496.842-1.006 1.356-1.353l-1.606-2.724Zm30.905 2.309c.46.43.766 1.003 1.21 1.45.544.549 1.374.993 2.104 1.242 1.394.475 2.67-.86 2.574-2.228-.057-.825-.752-1.19-1.39-1.573a4.881 4.881 0 0 0-.138-.082 6.333 6.333 0 0 1-.639-.448c-.027-.021-.106-.04-.081-.065.372-.387 1.144-.28 1.38-.882.161-.415-.346-.754-.69-.791-.522-.056-1.122.25-1.658.29-.636.049-1.196-.165-1.814-.226l-.858 3.313Z" clip-rule="evenodd"/>
    <path fill="#60070C" fill-rule="evenodd" d="M38.906 23.436a6.174 6.174 0 0 0 .752.511c.325.196.664.387.93.634.279.259.479.578.51 1.02.1 1.437-1.247 2.83-2.71 2.332-.744-.254-1.589-.708-2.143-1.266-.444-.447-.75-1.018-1.208-1.448a.103.103 0 0 1-.029-.1l.858-3.314a.102.102 0 0 1 .11-.076c.611.06 1.166.274 1.796.226.262-.02.54-.105.816-.178.294-.078.588-.142.86-.112.23.025.526.171.687.384a.544.544 0 0 1 .087.546c-.13.332-.403.474-.7.58-.215.078-.444.134-.616.261Zm-.14.151a.617.617 0 0 1-.073-.039.129.129 0 0 1-.042-.05c-.02-.04-.021-.084.022-.129.196-.205.496-.284.78-.386.241-.087.472-.192.578-.462.064-.165-.01-.314-.13-.426a.878.878 0 0 0-.474-.226c-.25-.027-.517.035-.787.106-.289.076-.579.164-.853.185-.612.046-1.155-.146-1.745-.217l-.82 3.169c.435.426.737.976 1.168 1.41.534.538 1.348.973 2.064 1.217 1.324.451 2.53-.824 2.439-2.124-.027-.383-.203-.659-.445-.884-.255-.238-.583-.42-.895-.608l-.056-.033-.082-.049a6.413 6.413 0 0 1-.648-.454Z" clip-rule="evenodd"/>
    <path fill="#BD111F" fill-rule="evenodd" d="M10.314 24.145c.216.02.316.456.31.607-.006.128 20.128.036 20.132-.093.006-.17.132-.492.22-.484.303.03.738.54.982.716.631.453 1.326.842 2.036 1.157.1.045 1.004.37 1.028.351.43-.34.646-1.34.878-1.807.226-.454.386-.94.558-1.417.177-.493.336-1.037.614-1.485.09-.145.357-.391.25-.556-.28-.435-.906-.426-1.34-.588-.877-.328-3.695-1.176-4.692-1.896-.485-.35-2.25-1.585-2.712-1.966-.182-.15-.53-.524-.765-.545-.75-.069-14.505-.063-14.66-.022-.628.166-1.409 1.169-1.92 1.584-1.587 1.293-3.4 2.422-5.177 3.43-.586.332-1.215.607-1.83.883a8.642 8.642 0 0 1-.594.238c-.102.038-.342 0-.308.104.045.136 1.054 1.616 1.184 1.81.284.424.519.873.77 1.316.22.39.494.752.723 1.14.075.126.155.25.21.388.027.071.032.274.078.215.757-.972 1.982-1.438 3.009-2.138.101-.069.94-.949 1.016-.942Z" clip-rule="evenodd"/>
    <path fill="#BD111F" fill-rule="evenodd" d="M30.992 24.281a.477.477 0 0 0-.039.06.879.879 0 0 0-.094.322.1.1 0 0 1-.069.095c-.025.01-.163.024-.396.034-2.137.087-13.042.149-17.68.115-1.167-.009-1.94-.024-2.082-.046-.065-.01-.09-.046-.096-.056a.1.1 0 0 1-.015-.057.897.897 0 0 0-.094-.377.348.348 0 0 0-.067-.095.125.125 0 0 0-.032-.023 1.335 1.335 0 0 0-.072.058c-.26.226-.819.805-.9.86-1.019.695-2.236 1.154-2.986 2.117a.12.12 0 0 1-.089.05.108.108 0 0 1-.084-.03.203.203 0 0 1-.05-.1c-.012-.049-.018-.124-.032-.16-.053-.133-.13-.252-.202-.375-.23-.387-.504-.75-.725-1.14-.25-.441-.483-.889-.765-1.31-.132-.197-1.151-1.697-1.197-1.835a.146.146 0 0 1 0-.099.153.153 0 0 1 .091-.09.49.49 0 0 1 .135-.025c.052-.005.11-.005.145-.018.199-.072.395-.15.587-.236.613-.274 1.238-.547 1.821-.878 1.773-1.005 3.58-2.131 5.164-3.42.305-.249.707-.709 1.116-1.072.286-.255.578-.463.841-.532.016-.005.177-.012.453-.015 2.35-.03 13.568-.028 14.244.034.108.01.24.08.37.178.17.127.34.3.45.39.462.38 2.223 1.612 2.707 1.961.991.717 3.795 1.558 4.669 1.885.214.08.476.117.72.188.27.08.516.2.67.44.062.096.049.21-.012.328-.064.122-.183.248-.238.337-.274.442-.43.979-.605 1.466-.173.48-.335.97-.562 1.427-.139.28-.271.75-.448 1.155-.126.288-.275.543-.458.687-.01.008-.051.032-.12.016-.167-.04-.922-.312-1.014-.353a11.657 11.657 0 0 1-2.053-1.168c-.148-.106-.365-.333-.58-.504-.115-.092-.227-.169-.327-.189Zm-27.542-1.9c.172.306 1.025 1.552 1.143 1.728.285.426.522.877.774 1.323.22.39.494.75.722 1.137.078.132.16.261.216.404a.361.361 0 0 1 .016.052c.767-.888 1.933-1.35 2.92-2.023.08-.054.626-.624.88-.846a.729.729 0 0 1 .137-.1.126.126 0 0 1 .065-.013c.117.01.218.102.286.233.063.123.1.276.113.388.234.018.956.03 1.994.038 4.635.034 15.533-.028 17.67-.115a6.84 6.84 0 0 0 .278-.017c.022-.13.08-.289.141-.382.057-.086.13-.12.18-.115.137.013.3.108.461.236.213.17.426.394.572.5.625.448 1.314.833 2.017 1.145.086.039.761.283.957.336.145-.131.261-.345.364-.58.178-.408.313-.882.452-1.164.224-.45.383-.933.553-1.406.18-.5.342-1.05.623-1.504.053-.085.17-.206.231-.324.023-.044.045-.086.022-.122-.127-.197-.334-.29-.556-.354-.248-.073-.515-.112-.734-.193-.883-.33-3.715-1.186-4.717-1.91-.486-.351-2.254-1.588-2.717-1.97-.108-.09-.276-.259-.443-.384-.095-.072-.187-.13-.266-.138-.675-.062-11.876-.063-14.222-.033a16.3 16.3 0 0 0-.41.01c-.236.064-.494.256-.75.485-.412.366-.817.828-1.123 1.077-1.593 1.297-3.41 2.43-5.192 3.44-.59.334-1.22.61-1.84.887a9.039 9.039 0 0 1-.6.242.726.726 0 0 1-.167.027.553.553 0 0 0-.05.005Z" clip-rule="evenodd"/>
    <path fill="#FDFEFE" fill-rule="evenodd" d="M14.72 14.372c-1.012.543-1.822 1.526-1.27 2.689.132.277.35.486.595.665.017.012.29.162.288.172-.033.29-.271.599-.367.873-.261.748.099 1.727.68 2.25.226.205.51.326.806.388.037.008.44.044.443.054.223.694-.305 1.774.527 2.305.68.433 1.914-.08 2.044-.012.061.033.174.338.264.418.582.527 1.642.931 2.414.684.422-.134.795-.528 1.007-.909.008-.014.055-.131.065-.131.243 0 .504.13.746.167.85.126 1.762-.178 2.329-.841.242-.284.428-.616.406-1.002-.012-.204-.317-.413-.198-.578.295-.41 1.162-.09 1.63-1.024.375-.749.54-1.61.265-2.413a1.437 1.437 0 0 0-.322-.54c-.016-.017-.212-.165-.21-.172.105-.572 1.404-.716.857-2.292-.164-.472-.375-.886-.835-1.122a3.063 3.063 0 0 0-.633-.245c-.013-.003-.208-.043-.207-.049.03-.62.315-1.075.188-1.75-.153-.817-.708-1.478-.748-2.323-.034-.711.695-1.406.092-1.967-.564-.525-1.442-.606-2.159-.775-2.137-.504-4.245-.399-6.388.135-.26.064-2.421.656-2.54.885-.17.326.104.874.057 1.23-.056.423-.307.79-.306 1.225.002.621.303 1.16.414 1.76.135.73.105 1.527.135 2.272l-.07-.027Z" clip-rule="evenodd"/>
    <path fill="#FDFEFE" fill-rule="evenodd" d="M14.682 14.277c-.022-.704-.002-1.447-.13-2.132-.111-.606-.413-1.15-.414-1.778 0-.23.063-.441.137-.651.067-.192.142-.383.17-.587.026-.206-.061-.478-.097-.73-.029-.2-.027-.386.05-.535a.255.255 0 0 1 .071-.079 1.33 1.33 0 0 1 .264-.141c.627-.273 2.062-.665 2.272-.717 2.159-.537 4.282-.643 6.436-.134.733.173 1.629.263 2.205.8.336.312.31.66.195 1.032-.1.322-.271.66-.255 1.004.02.41.166.774.324 1.136.166.38.345.757.423 1.173.066.353.026.648-.036.937-.053.245-.122.485-.145.754l.125.028c.228.06.444.145.653.253.486.249.713.682.886 1.18.174.501.168.866.076 1.146-.092.284-.272.485-.456.654-.113.104-.228.196-.319.29a.598.598 0 0 0-.14.199c.058.045.158.125.168.136.158.16.273.366.346.578.284.831.117 1.72-.27 2.493-.3.598-.75.718-1.131.81-.115.027-.222.051-.314.089a.415.415 0 0 0-.194.139c-.014.02-.007.04.001.063a.535.535 0 0 0 .052.096c.072.114.157.236.164.352.024.414-.17.771-.43 1.075-.59.69-1.537 1.008-2.422.877-.217-.033-.45-.145-.67-.164l-.036.076c-.224.402-.62.815-1.066.957-.803.257-1.908-.157-2.514-.706-.06-.053-.132-.194-.192-.308a1.464 1.464 0 0 0-.053-.088.767.767 0 0 0-.047.004c-.064.01-.15.03-.251.052-.277.062-.664.145-1.034.135-.26-.007-.511-.06-.717-.19-.45-.288-.54-.72-.54-1.178 0-.388.07-.794-.012-1.122-.108-.012-.358-.04-.384-.046a1.823 1.823 0 0 1-.854-.411c-.609-.55-.981-1.577-.708-2.361.05-.14.135-.291.213-.443a1.48 1.48 0 0 0 .14-.346 10.98 10.98 0 0 1-.237-.14c-.259-.188-.489-.41-.627-.703-.578-1.219.254-2.255 1.313-2.823l.011-.005Zm-.104-6.315c-.073.145-.042.339-.006.536.044.233.1.47.075.657-.028.22-.107.423-.179.629-.065.188-.126.377-.125.583.001.614.302 1.147.412 1.741.136.736.106 1.537.137 2.287a.103.103 0 0 1-.043.088.103.103 0 0 1-.097.012l-.025-.01c-.945.521-1.703 1.44-1.184 2.532.124.261.332.458.563.626.014.011.238.134.281.166.053.04.05.09.048.101a1.474 1.474 0 0 1-.17.477c-.074.144-.156.285-.202.418-.249.711.098 1.642.651 2.14.213.193.481.305.76.364.032.007.36.037.429.05a.112.112 0 0 1 .09.073c.114.356.04.81.04 1.245 0 .388.063.76.444 1.004.175.112.391.153.613.16.352.009.72-.072.983-.13a2.72 2.72 0 0 1 .325-.062.217.217 0 0 1 .116.017c.028.015.07.061.108.13.055.096.119.25.176.302.559.506 1.574.9 2.315.663.398-.127.748-.502.948-.862.009-.014.053-.12.07-.14a.104.104 0 0 1 .085-.044c.248 0 .514.132.761.169.817.12 1.692-.17 2.236-.807.225-.264.402-.57.381-.93a.315.315 0 0 0-.055-.135c-.038-.063-.083-.124-.115-.183-.063-.116-.08-.226-.008-.326.131-.181.36-.244.626-.307.334-.08.733-.178.996-.702.362-.724.525-1.556.259-2.335a1.337 1.337 0 0 0-.298-.501c-.015-.015-.173-.134-.204-.163a.106.106 0 0 1-.034-.099.641.641 0 0 1 .152-.297c.101-.119.243-.23.384-.36.16-.147.32-.32.4-.566.081-.249.08-.572-.075-1.016-.155-.446-.35-.841-.785-1.065a2.975 2.975 0 0 0-.612-.237c-.012-.003-.177-.037-.21-.048a.104.104 0 0 1-.074-.105c.016-.316.095-.59.155-.87.057-.264.096-.534.035-.856-.075-.4-.25-.763-.41-1.129-.167-.384-.319-.773-.34-1.208-.017-.367.158-.731.264-1.075.091-.294.128-.574-.139-.822-.55-.513-1.412-.584-2.112-.75-2.121-.5-4.213-.396-6.34.134-.18.045-1.288.347-1.977.602a3.374 3.374 0 0 0-.415.177.66.66 0 0 0-.084.057Z" clip-rule="evenodd"/>
    <path fill="#F0CECC" fill-rule="evenodd" d="M16.547 13.64c1.02.191 2.127-.014 3.158-.005.847.009 1.668.028 2.514-.025.493-.032.978-.035 1.437-.243.293-.134.544-.333.784-.544.232-.203.495-.395.647-.668.818-1.462-1.314-2.485-2.44-2.755-1.025-.246-2.143-.091-3.172.046-.555.073-1.136.122-1.67.3-.367.122-.692.33-1.047.48-.393.166-.86.21-1.225.433-1.212.744-.167 2.67.931 2.973l.083.007Z" clip-rule="evenodd"/>
    <path fill="#F0CECC" fill-rule="evenodd" d="m16.533 13.741-.078-.007a.088.088 0 0 1-.018-.003c-.69-.19-1.365-.991-1.517-1.772-.104-.538.033-1.064.56-1.387.368-.227.84-.272 1.238-.44.358-.15.685-.36 1.055-.484.54-.18 1.127-.23 1.688-.304 1.042-.138 2.173-.292 3.21-.043.692.165 1.754.612 2.313 1.264.391.457.545 1.01.193 1.64-.159.283-.43.485-.67.695-.247.217-.506.422-.808.56-.47.214-.968.22-1.473.252-.849.054-1.673.034-2.522.026-1.035-.01-2.146.194-3.171.003Zm.033-.202c1.015.19 2.115-.016 3.14-.006.844.008 1.663.028 2.507-.026.48-.03.953-.03 1.4-.234.285-.13.527-.323.76-.527.223-.195.478-.379.625-.641.302-.54.166-1.015-.17-1.407-.532-.62-1.546-1.04-2.205-1.198-1.013-.243-2.117-.088-3.135.047-.548.073-1.123.12-1.65.296-.365.122-.688.33-1.04.478-.39.164-.851.204-1.212.425-.443.273-.553.72-.465 1.174.137.705.738 1.433 1.362 1.61l.073.007c.003 0 .007 0 .01.002Z" clip-rule="evenodd"/>
    <path fill="#F6F4F4" fill-rule="evenodd" d="M19.708 14.679c-.087-.483-.515-.726-.956-.83-.817-.191-1.722-.031-2.52-.298a2.182 2.182 0 0 1-.93-.652c-.007-.01-.076-.11-.079-.11-.17.065-.22.32-.234.473-.102 1.083.383 2.393 1.467 2.822.897.355 1.9-.104 2.636-.61.212-.147.62-.402.698-.676l-.082-.12Z" clip-rule="evenodd"/>
    <path fill="#F6F4F4" fill-rule="evenodd" d="m19.805 14.639.07.101a.102.102 0 0 1 .013.086.852.852 0 0 1-.246.36c-.159.15-.361.282-.492.372-.762.524-1.803.989-2.731.621-1.127-.445-1.638-1.802-1.532-2.927.01-.102.035-.246.093-.36a.396.396 0 0 1 .207-.198.102.102 0 0 1 .117.031c.014.017.071.1.078.11a2.072 2.072 0 0 0 .882.618c.39.131.806.156 1.225.173.434.017.871.026 1.286.123.474.112.926.378 1.03.89Zm-4.607-1.709a.347.347 0 0 0-.055.1.917.917 0 0 0-.052.241c-.098 1.042.36 2.305 1.403 2.717.865.343 1.83-.11 2.54-.6.124-.084.317-.208.467-.35a.747.747 0 0 0 .175-.225l-.052-.076a.105.105 0 0 1-.017-.04c-.08-.44-.476-.653-.879-.748-.402-.094-.826-.101-1.248-.118-.437-.018-.873-.046-1.281-.183a2.286 2.286 0 0 1-1-.718Zm5.097 1.954c.163.286.446.472.72.643.25.158.501.319.796.383 1.341.293 2.972-.599 3.02-2.056.012-.36-.072-.736-.17-1.08a9.732 9.732 0 0 0-.106-.313c-.096.044-.131.308-.167.387a.79.79 0 0 1-.477.434c-1.137.386-2.424-.268-3.23.9a3.184 3.184 0 0 0-.35.615l-.036.087Z" clip-rule="evenodd"/>
    <path fill="#F6F4F4" fill-rule="evenodd" d="m20.2 14.846.035-.087a3.29 3.29 0 0 1 .361-.636c.426-.615.975-.754 1.57-.787.556-.03 1.152.039 1.712-.15a.689.689 0 0 0 .417-.38c.024-.055.05-.202.095-.3a.272.272 0 0 1 .122-.138.096.096 0 0 1 .118.023.12.12 0 0 1 .024.042c.018.048.1.293.105.313.102.354.187.741.175 1.111-.05 1.52-1.746 2.459-3.145 2.153-.306-.067-.568-.232-.83-.396-.286-.18-.581-.379-.753-.679a.102.102 0 0 1-.006-.09Zm4.333-2.13c-.02.07-.036.14-.051.174a.892.892 0 0 1-.538.49c-.578.195-1.193.13-1.766.16-.534.03-1.031.147-1.413.7-.131.19-.253.381-.34.595l-.016.04c.159.247.415.411.66.565.241.152.48.308.764.37 1.283.28 2.85-.565 2.896-1.96.011-.348-.071-.714-.167-1.048l-.029-.086Z" clip-rule="evenodd"/>
    <path fill="#950D19" fill-rule="evenodd" d="M19.906 14.916c-.217.127-.274.527-.52.512-.372-.023-.6.113-.673.599-.021.143-.199.203-.336.25a.441.441 0 0 1-.137.023c-.023 0-.085-.015-.07.002.424.464 1 .768 1.647.613.688-.166 1.374-.937.984-1.642-.199-.36-.575-.108-.824-.298l-.07-.06Z" clip-rule="evenodd"/>
    <path fill="#950D19" fill-rule="evenodd" d="m19.972 14.837.07.058a.295.295 0 0 0 .153.054c.07.008.145.006.217.009.184.007.357.045.479.266.216.39.138.797-.093 1.13a1.69 1.69 0 0 1-.956.66c-.686.165-1.298-.152-1.747-.643a.102.102 0 0 1-.028-.087.1.1 0 0 1 .053-.078.125.125 0 0 1 .059-.015c.015 0 .045.007.059.007a.343.343 0 0 0 .106-.018c.062-.021.133-.045.191-.08.037-.022.07-.048.077-.088.04-.276.132-.45.26-.555.131-.106.304-.145.52-.131.042.002.072-.02.1-.049a.712.712 0 0 0 .078-.106c.081-.129.163-.272.285-.344a.102.102 0 0 1 .117.01Zm-1.58 1.543c.38.352.864.564 1.402.435.32-.077.64-.296.835-.577.187-.27.257-.6.083-.915-.097-.175-.25-.16-.396-.162-.143-.003-.284-.015-.401-.105a.017.017 0 0 1-.004-.003l-.007-.006a.637.637 0 0 0-.074.095c-.047.07-.088.146-.134.209-.083.114-.181.188-.316.18-.156-.01-.284.008-.378.085-.097.08-.156.216-.188.426a.309.309 0 0 1-.127.202 1.016 1.016 0 0 1-.276.13l-.019.006Z" clip-rule="evenodd"/>
    <path fill="#D97978" fill-rule="evenodd" d="M20.232 12.085c-.587-.009-1.27.132-1.72.611-.607.647-.473 1.482.392 1.789.32.113.68.114 1.015.12.639.012 1.567-.175 1.924-.775.507-.852-.684-1.73-1.611-1.745Z" clip-rule="evenodd"/>
    <path fill="#D97978" fill-rule="evenodd" d="M20.233 11.983c.586.01 1.272.347 1.611.809.24.325.313.71.087 1.09-.153.258-.403.446-.693.577-.42.189-.924.256-1.32.248-.347-.006-.719-.009-1.049-.126-.473-.167-.742-.484-.813-.843-.072-.356.052-.76.381-1.112.471-.501 1.183-.652 1.796-.643Zm-.003.205c-.56-.009-1.213.12-1.643.579-.277.295-.39.631-.33.931.059.297.29.551.68.69.31.11.66.108.984.114.37.008.841-.054 1.233-.23.25-.113.469-.272.601-.494.18-.301.114-.607-.076-.865-.305-.415-.922-.717-1.449-.725Z" clip-rule="evenodd"/>
    <path fill="#000" fill-rule="evenodd" d="M17.168 11.544a.102.102 0 1 1-.147-.142c.431-.444.977-.37 1.432-.013a.103.103 0 0 1-.127.161c-.367-.29-.81-.364-1.158-.006Zm4.982-.15a.102.102 0 0 1-.167-.12c.138-.192.295-.293.456-.332.363-.087.76.158 1.025.48a.102.102 0 1 1-.158.13c-.214-.26-.525-.48-.819-.41a.59.59 0 0 0-.337.252Z" clip-rule="evenodd"/>
    <path fill="#F4F4F4" fill-rule="evenodd" d="M27.297 5.94c-.197.428-.134.937-.025 1.381.11.444.246.946.553 1.298.695.795 1.998.945 2.808.261.58-.488.445-1.336.226-1.976-.173-.505-.467-1.051-.903-1.38-.574-.43-1.62-.51-2.301-.302l-.358.717Z" clip-rule="evenodd"/>
    <path fill="#F4F4F4" fill-rule="evenodd" d="m27.205 5.894.358-.718a.105.105 0 0 1 .062-.052c.71-.217 1.796-.13 2.392.319.453.34.76.904.939 1.428.113.331.204.716.192 1.081-.012.382-.135.743-.449 1.006-.851.719-2.22.564-2.951-.272-.318-.363-.462-.881-.575-1.34-.114-.466-.175-1 .03-1.45l.002-.002Zm.185.09c-.187.408-.122.89-.018 1.313.105.428.233.915.53 1.254.66.755 1.896.9 2.665.25.266-.223.366-.531.376-.855.011-.341-.075-.7-.181-1.009-.167-.486-.447-1.015-.868-1.33-.539-.405-1.512-.484-2.167-.3l-.337.677Z" clip-rule="evenodd"/>
    <path fill="#9F0A1B" fill-rule="evenodd" d="M14.156 8.057c.812-.777 2.05-1.11 3.117-1.306 1.835-.336 3.729-.488 5.582-.153.908.164 1.737.542 2.596.863.16.06.332.117.469.224.052.04.185.22.24.18.23-.162.174-.558.131-.794-.17-.922-1.035-1.207-1.635-1.79-.14-.135-.72-.594-.445-.828.214-.182.58-.059.778.081.662.47 1.127 1.28 2.012 1.409.395.057.999-.341.9-.783-.057-.25-.282-.446-.43-.644-.375-.503-.805-.951-1.187-1.443-.358-.461-.55-.986-1.001-1.383-.438-.385-1.031-.538-1.504-.877-.402-.287-.634-.719-1.165-.803-.581-.093-1.245.52-1.76.724-.415.164-.876.218-1.27.429-.386.206-.647.584-.989.852-.311.243-.712.36-1.009.625-.62.553-1.356 1.777-1.74 2.519-.311.6-.966.8-1.434 1.225-.426.386-.558 1.196-.39 1.737l.134-.064Z" clip-rule="evenodd"/>
    <path fill="#9F0A1B" fill-rule="evenodd" d="m14.2 8.15-.135.063a.102.102 0 0 1-.142-.062c-.177-.574-.033-1.433.42-1.843.238-.216.522-.375.787-.555.247-.169.478-.357.625-.641.389-.751 1.135-1.988 1.763-2.549.298-.266.7-.384 1.014-.63.347-.27.612-.652 1.003-.86.398-.213.863-.269 1.28-.434.308-.122.668-.39 1.032-.566.265-.127.532-.205.784-.164.286.045.493.183.682.35.172.152.328.33.526.47.475.341 1.072.497 1.512.884.455.401.652.93 1.014 1.397.383.492.812.941 1.189 1.445.073.098.166.196.247.3a.993.993 0 0 1 .2.382c.046.21-.035.414-.186.576-.212.229-.564.37-.829.33-.464-.067-.819-.31-1.143-.6-.307-.275-.585-.593-.913-.825a.849.849 0 0 0-.415-.153.327.327 0 0 0-.238.066c-.069.059-.032.14.019.222.116.188.35.377.431.455.299.29.663.504.974.762.33.274.601.595.69 1.083.029.151.06.364.028.548a.516.516 0 0 1-.2.348c-.037.027-.085.034-.14.01a.43.43 0 0 1-.118-.086c-.041-.04-.081-.09-.104-.107-.128-.1-.29-.154-.441-.21-.854-.318-1.678-.694-2.58-.857-1.84-.333-3.722-.181-5.545.153-1.048.192-2.267.516-3.064 1.279a.108.108 0 0 1-.027.018Zm-.103-.18c.826-.78 2.077-1.122 3.157-1.32 1.847-.338 3.754-.49 5.62-.153.913.166 1.748.545 2.613.867.17.063.351.127.496.24.023.018.061.06.102.102a.694.694 0 0 0 .05.046.35.35 0 0 0 .082-.186 1.438 1.438 0 0 0-.027-.477c-.08-.434-.326-.717-.62-.961-.315-.261-.683-.48-.986-.773-.086-.084-.337-.29-.463-.494-.11-.18-.128-.357.024-.486a.53.53 0 0 1 .381-.115c.19.01.39.097.523.19.334.237.618.56.93.84.295.263.615.49 1.037.551.209.03.482-.088.65-.268.102-.11.166-.247.134-.39a.786.786 0 0 0-.16-.302c-.083-.105-.177-.205-.25-.304-.376-.502-.805-.95-1.187-1.441-.354-.456-.543-.977-.988-1.369-.435-.383-1.026-.534-1.496-.87-.204-.146-.365-.328-.542-.485-.16-.141-.335-.262-.579-.301-.27-.043-.558.084-.84.239-.306.17-.606.376-.866.48-.412.162-.869.214-1.26.423-.38.203-.636.578-.974.842-.31.242-.709.358-1.003.621-.613.547-1.338 1.757-1.718 2.49-.164.316-.416.528-.691.716-.258.175-.535.328-.765.537-.37.336-.5 1.014-.392 1.516l.008-.004Z" clip-rule="evenodd"/>
  </g>
  <defs>
    <clipPath id="a">
      <path fill="#fff" d="M0 0h41v46.33H0z"/>
    </clipPath>
  </defs>
</svg>
